<svg xmlns="http://www.w3.org/2000/svg" width="1920" viewBox="0 0 1440 810" height="1080" version="1.2"><defs><clipPath id="h"><path d="M859.559 336.766c-18.84 0-34.114 15.277-34.114 34.117 0 18.844 15.274 34.117 34.114 34.117 18.843 0 34.117-15.273 34.117-34.117 0-18.84-15.274-34.117-34.117-34.117zm0 0"/></clipPath><clipPath id="a"><path d="M813.719 182H948v47H813.719zm0 0"/></clipPath><clipPath id="c"><path d="M1058.105 121.57c-18.843 0-34.117 15.274-34.117 34.118 0 18.84 15.274 34.117 34.117 34.117 18.844 0 34.118-15.278 34.118-34.118 0-18.843-15.274-34.117-34.118-34.117zm0 0"/></clipPath><clipPath id="e"><path d="M.988.57h68.235v68.235H.988zm0 0"/></clipPath><clipPath id="f"><path d="M35.105.57C16.262.57.988 15.844.988 34.687c0 18.84 15.274 34.118 34.117 34.118 18.844 0 34.118-15.278 34.118-34.118C69.223 15.845 53.949.57 35.105.57zm0 0"/></clipPath><clipPath id="d"><path d="M0 0h70v69H0z"/></clipPath><clipPath id="g"><path d="M825.445 336.766h68.23V405h-68.23zm0 0"/></clipPath><clipPath id="b"><path d="M1023.988 121.57h68.235v68.235h-68.235zm0 0"/></clipPath><clipPath id="j"><path d="M.445.766h68.23V69H.446zm0 0"/></clipPath><clipPath id="k"><path d="   4 1.285 3.336 2.566 5.262 3.465l2.309-2.567v3.207c.898.13 1.668.258 2.566.13 1.156-.13 5.516-1.024 6.031-2.18 0 0 5.774-12.829-5.261-24.376-1.157-1.156-2.438-2.183-3.719-3.082l-1.797 2.438-3.078-5.129c-2.953-1.414-6.031-2.437-8.984-3.465-6.543-2.183-13.34-3.722-20.27-4.875-2.437-.644-5.262-1.027-7.953-1.414zM1275.469 572.207c7.441 3.207 16.164.387 24.117-4.363-1.024-2.18-3.078-6.414-3.336-6.668-.125-.258 3.852 2.949 6.16 4.875 11.29-7.442 20.27-17.965 20.27-17.965s-29.762-1.922-40.797 3.851c-1.028.512-2.055 1.153-2.824 1.922l1.027 2.313-2.438-.645c-5.515 6.672-2.18 16.68-2.18 16.68zm0 0"/><path style="stroke:none;fill-rule:nonzero;fill:#2a294b;fill-opacity:1" d="M1261.227 594.02c-.13-.645-9.88-64.918 27.457-100.844l.898 1.027c-36.824 35.41-27.2 99.047-27.074 99.688zm0 0"/><path style="stroke:none;fill-rule:nonzero;fill:#2a294b;fill-opacity:1" d="M1259.688 603.129c0-.516-4.106-50.04-45.418-66.715l.511-1.285c42.082 16.937 46.188 67.355 46.188 67.871zM1263.023 590.813l-1.156-.645c.13-.254 17.192-32.203 42.98-37.973l.258 1.282c-25.148 5.644-41.953 36.949-42.082 37.336zm0 0"/><path style="stroke:none;fill-rule:nonzero;fill:#2a294b;fill-opacity:1" d="m1234.414 588.246 12.7 45.672h26.429l12.574-45.29v-.253h-51.703zm0 0"/><path style="stroke:none;fill-rule:nonzero;fill:#2a294b;fill-opacity:1" d="M1228.64 635.457H992.958c-7.57 0-13.855-6.156-13.855-13.855V202.453c0-7.566 6.156-13.855 13.855-13.855h235.555c7.57 0 13.855 6.16 13.855 13.855V621.73c0 7.57-6.16 13.727-13.726 13.727zm0 0"/><path style="stroke:none;fill-rule:nonzero;fill:#fff;fill-opacity:1" d="M997.45 625.45a9.746 9.746 0 0 1-9.755-9.75V208.483c0-5.386 4.364-9.75 9.754-9.75h58.5c4.235 0 7.828 3.465 7.828 7.828 0 1.665.641 3.333 1.926 4.489 1.281 1.156 2.82 1.926 4.488 1.926h81.34c3.465 0 6.418-2.825 6.418-6.415 0-2.054.77-3.98 2.309-5.519 1.41-1.41 3.465-2.309 5.515-2.309h58.504a9.748 9.748 0 0 1 9.75 9.75V615.7c0 5.39-4.363 9.75-9.75 9.75zm0 0"/><path style="stroke:none;fill-rule:nonzero;fill:#2a294b;fill-opacity:1" d="M1224.148 199.375c5.004 0 9.11 4.105 9.11 9.11v407.214c0 5.004-4.106 9.11-9.11 9.11H997.45c-5.004 0-9.11-4.106-9.11-9.11V208.484c0-5.004 4.106-9.109 9.11-9.109h58.5c3.852 0 7.059 3.207 7.059 7.059 0 1.921.77 3.718 2.05 5.004a7.098 7.098 0 0 0 5.005 2.05h81.34c3.85 0 7.058-3.207 7.058-7.054 0-1.926.77-3.723 2.05-5.004a7.084 7.084 0 0 1 5.005-2.055h58.632m0-1.41h-58.503c-2.31 0-4.364.898-6.028 2.437-1.543 1.54-2.441 3.72-2.441 6.032 0 3.078-2.563 5.644-5.645 5.644h-81.34c-1.539 0-2.949-.64-3.976-1.668a5.626 5.626 0 0 1-1.668-3.976c0-4.621-3.848-8.47-8.469-8.47h-58.504c-5.773 0-10.52 4.747-10.52 10.391V615.57c0 5.774 4.747 10.395 10.52 10.395h226.703c5.774 0 10.391-4.746 10.391-10.395V208.484c0-5.773-4.746-10.52-10.52-10.52zm0 0"/><path style="stroke:none;fill-rule:nonzero;fill:#fff;fill-opacity:1" d="M1126.258 204.379h-44.52c-.77 0-1.41-.64-1.41-1.41 0-.77.64-1.41 1.41-1.41h44.52c.77 0 1.41.64 1.41 1.41 0 .77-.64 1.41-1.41 1.41zM1139.86 202.969a1.799 1.799 0 0 1-2.485 1.66 1.796 1.796 0 0 1-.582-.39 1.799 1.799 0 0 1 1.27-3.066 1.775 1.775 0 0 1 1.27.527 1.799 1.799 0 0 1 .527 1.27zm0 0"/><path style="stroke:none;fill-rule:nonzero;fill:#e5d7ff;fill-opacity:1" d="M1005.273 468.8h211.176v140.102h-211.176zm0 0"/><path style="stroke:none;fill-rule:nonzero;fill:#2a294b;fill-opacity:1" d="M1072.758 534.746a3.174 3.174 0 0 1-.938 2.266c-.3.3-.648.535-1.043.695-.39.164-.8.246-1.226.246a3.14 3.14 0 0 1-1.227-.246 3.13 3.13 0 0 1-1.043-.695 3.174 3.174 0 0 1-.937-2.266c0-.426.082-.836.242-1.23a3.216 3.216 0 0 1 1.738-1.735c.39-.164.801-.242 1.227-.242a3.19 3.19 0 0 1 2.965 1.977c.16.394.242.804.242 1.23zM1100.215 534.746c0 .426-.082.832-.246 1.227-.16.394-.395.738-.696 1.039-.3.3-.648.535-1.039.695a3.174 3.174 0 0 1-2.457 0 3.154 3.154 0 0 1-1.039-.695c-.3-.301-.531-.645-.695-1.04a3.174 3.174 0 0 1 0-2.457 3.216 3.216 0 0 1 1.734-1.734 3.17 3.17 0 0 1 1.23-.242c.423 0 .833.078 1.227.242a3.216 3.216 0 0 1 1.98 2.965zM1127.797 534.746a3.174 3.174 0 0 1-.938 2.266c-.3.3-.648.535-1.043.695-.39.164-.8.246-1.226.246a3.14 3.14 0 0 1-1.227-.246 3.13 3.13 0 0 1-1.043-.695 3.174 3.174 0 0 1-.937-2.266c0-.426.082-.836.242-1.23a3.216 3.216 0 0 1 1.738-1.735c.39-.164.801-.242 1.227-.242a3.19 3.19 0 0 1 2.965 1.977c.16.394.242.804.242 1.23zM1155.254 534.746c0 .426-.082.832-.246 1.227-.16.394-.395.738-.696 1.039-.3.3-.644.535-1.039.695a3.174 3.174 0 0 1-2.457 0 3.154 3.154 0 0 1-1.039-.695 3.174 3.174 0 0 1-.937-2.266c0-.426.078-.836.242-1.23a3.216 3.216 0 0 1 1.734-1.735 3.17 3.17 0 0 1 1.23-.242 3.174 3.174 0 0 1 2.266.938c.301.3.536.648.696 1.039.164.394.246.804.246 1.23zm0 0"/><path style="stroke:none;fill-rule:nonzero;fill:#e5d7ff;fill-opacity:1" d="M1016.18 417.738h198.601v5.004H1016.18zM1016.18 432.75h88.14v5.004h-88.14zm0 0"/><path style="stroke:none;fill-rule:nonzero;fill:#fff;fill-opacity:1" d="M1023.492 393.617c-8.34 0-15.27-6.8-15.27-15.265V240.305c0-8.34 6.801-15.27 15.27-15.27h264.547c8.34 0 15.27 6.8 15.27 15.27v138.047c0 8.34-6.801 15.265-15.27 15.265zm0 0"/><path style="stroke:none;fill-rule:nonzero;fill:#2a294b;fill-opacity:1" d="M1288.04 225.676c8.085 0 14.5 6.543 14.5 14.5v138.047c0 8.082-6.544 14.496-14.5 14.496h-264.548c-8.082 0-14.496-6.543-14.496-14.496V240.305c0-8.086 6.543-14.5 14.496-14.5h264.547m0-1.41h-264.547c-8.722 0-15.91 7.183-15.91 15.91v138.047c0 8.722 7.188 15.906 15.91 15.906h264.547c8.727 0 15.91-7.184 15.91-15.906V240.305c0-8.727-7.183-15.91-15.91-15.91zm0 0"/><path style="stroke:none;fill-rule:nonzero;fill:#5067b2;fill-opacity:1" d="M1270.594 279.691a22.782 22.782 0 0 1-.434 4.402 22.805 22.805 0 0 1-1.285 4.239 23.472 23.472 0 0 1-.95 2.004 21.237 21.237 0 0 1-1.14 1.898 22.52 22.52 0 0 1-1.316 1.782c-.473.57-.969 1.117-1.489 1.64-.523.524-1.07 1.02-1.644 1.489a22.503 22.503 0 0 1-3.68 2.46 22.31 22.31 0 0 1-2.004.946c-.683.285-1.379.531-2.086.746a22.432 22.432 0 0 1-6.554.973c-.739 0-1.477-.036-2.211-.11-.738-.07-1.469-.18-2.196-.324a22.728 22.728 0 0 1-6.238-2.23 23.257 23.257 0 0 1-1.898-1.141c-.617-.41-1.211-.852-1.782-1.32a22.73 22.73 0 0 1-3.129-3.129 22.567 22.567 0 0 1-1.32-1.782 22.201 22.201 0 0 1-2.086-3.902 22.119 22.119 0 0 1-.75-2.086c-.215-.71-.39-1.426-.535-2.152a22.792 22.792 0 0 1-.328-2.192 23.205 23.205 0 0 1 0-4.425 23.164 23.164 0 0 1 .863-4.34c.215-.711.465-1.407.75-2.086a22.311 22.311 0 0 1 2.086-3.906c.41-.614.852-1.207 1.32-1.782a22.73 22.73 0 0 1 4.91-4.449c.614-.41 1.247-.789 1.9-1.137a22.344 22.344 0 0 1 4.089-1.695 22.728 22.728 0 0 1 2.148-.539 21.862 21.862 0 0 1 2.196-.324 22.126 22.126 0 0 1 4.426 0 22.432 22.432 0 0 1 6.426 1.61 22.85 22.85 0 0 1 3.906 2.086c.613.41 1.207.85 1.777 1.32a21.99 21.99 0 0 1 1.644 1.488c.52.523 1.016 1.07 1.489 1.64a23.262 23.262 0 0 1 2.457 3.684 22.408 22.408 0 0 1 1.695 4.09 22.432 22.432 0 0 1 .973 6.554zm0 0"/><path style="stroke:none;fill-rule:nonzero;fill:#fff;fill-opacity:1" d="M1241.086 273.148c0 .477-.094.934-.274 1.375a3.612 3.612 0 0 1-1.945 1.942 3.54 3.54 0 0 1-1.375.273 3.54 3.54 0 0 1-1.375-.273 3.5 3.5 0 0 1-1.164-.777 3.55 3.55 0 0 1-.781-1.165 3.598 3.598 0 0 1 1.945-4.695 3.54 3.54 0 0 1 1.375-.273 3.601 3.601 0 0 1 3.32 2.219c.18.437.274.898.274 1.374zM1262.125 273.148a3.601 3.601 0 0 1-1.05 2.54c-.34.335-.727.597-1.169.777a3.526 3.526 0 0 1-1.375.273 3.54 3.54 0 0 1-1.375-.273 3.54 3.54 0 0 1-1.164-.777 3.54 3.54 0 0 1-.777-1.165 3.54 3.54 0 0 1-.274-1.375c0-.476.09-.937.274-1.375.18-.441.441-.828.777-1.168a3.601 3.601 0 0 1 2.54-1.05 3.618 3.618 0 0 1 2.543 1.05 3.618 3.618 0 0 1 1.05 2.543zM1248.012 290.594c-2.95 0-5.774-.899-8.082-2.692a.677.677 0 0 1-.13-1.027c.259-.258.77-.387 1.028-.129 2.05 1.54 4.617 2.309 7.184 2.309 2.566 0 5.133-.77 7.183-2.309.387-.258.77-.129 1.028.129.257.383.129.77-.13 1.027-2.308 1.793-5.128 2.692-8.081 2.692zm0 0"/><path style="stroke:none;fill-rule:nonzero;fill:#5067b2;fill-opacity:1" d="M1147.555 279.691c0 .739-.035 1.477-.11 2.211-.07.739-.18 1.47-.324 2.192a22.806 22.806 0 0 1-1.285 4.238 22.31 22.31 0 0 1-3.406 5.684 22.73 22.73 0 0 1-4.91 4.449 22.311 22.311 0 0 1-3.902 2.086 22.805 22.805 0 0 1-4.238 1.285c-.724.144-1.454.254-2.192.324-.735.074-1.473.11-2.211.11-.743 0-1.48-.036-2.215-.11a22.432 22.432 0 0 1-4.34-.863 21.78 21.78 0 0 1-2.09-.746 22.757 22.757 0 0 1-2-.946 24.013 24.013 0 0 1-1.902-1.14 23.312 23.312 0 0 1-1.782-1.32 22.73 22.73 0 0 1-4.449-4.91c-.41-.614-.789-1.247-1.137-1.9a21.32 21.32 0 0 1-.949-2.003 22.805 22.805 0 0 1-1.285-4.238 21.621 21.621 0 0 1-.324-2.192 21.992 21.992 0 0 1-.11-2.21c0-.743.036-1.481.11-2.215a22.432 22.432 0 0 1 1.61-6.426 21.32 21.32 0 0 1 .948-2.004 22.85 22.85 0 0 1 1.137-1.902c.41-.614.852-1.207 1.32-1.782a22.73 22.73 0 0 1 4.91-4.449c.618-.41 1.25-.789 1.903-1.137.652-.351 1.32-.664 2-.949a22.895 22.895 0 0 1 4.238-1.285 21.952 21.952 0 0 1 2.192-.324c.734-.074 1.472-.11 2.215-.11.738 0 1.476.036 2.21.11.739.07 1.47.18 2.192.324a22.805 22.805 0 0 1 4.238 1.285c.684.285 1.352.598 2.004.95a22.567 22.567 0 0 1 8.129 7.367 22.311 22.311 0 0 1 2.086 3.906c.285.68.531 1.375.746 2.086a22.432 22.432 0 0 1 .973 6.554zm0 0"/><path style="stroke:none;fill-rule:nonzero;fill:#fff;fill-opacity:1" d="M1118.047 273.148a3.601 3.601 0 0 1-1.05 2.54c-.34.335-.727.597-1.169.777a3.526 3.526 0 0 1-1.375.273 3.54 3.54 0 0 1-1.375-.273 3.54 3.54 0 0 1-1.164-.777 3.54 3.54 0 0 1-.777-1.165 3.54 3.54 0 0 1-.274-1.375c0-.476.09-.937.274-1.375.18-.441.441-.828.777-1.168a3.601 3.601 0 0 1 2.54-1.05 3.618 3.618 0 0 1 2.543 1.05 3.618 3.618 0 0 1 1.05 2.543zM1139.086 273.148c0 .477-.09.934-.274 1.375a3.54 3.54 0 0 1-.777 1.164 3.54 3.54 0 0 1-1.164.778 3.54 3.54 0 0 1-1.375.273 3.54 3.54 0 0 1-1.375-.273 3.5 3.5 0 0 1-1.164-.777 3.55 3.55 0 0 1-.781-1.165 3.598 3.598 0 0 1 1.945-4.695 3.54 3.54 0 0 1 1.375-.273 3.601 3.601 0 0 1 2.54 1.05c.335.34.597.727.776 1.168.184.438.274.899.274 1.375zM1132.672 291.363c-.129 0-.254 0-.512-.125-2.055-1.543-4.62-2.312-7.183-2.312-2.567 0-5.133.77-7.188 2.312-.383.254-.77.125-1.023-.129-.258-.257-.13-.77.125-1.027 2.312-1.797 5.132-2.695 8.086-2.695 2.949 0 5.773.898 8.082 2.695.382.258.382.77.129 1.027 0 .13-.258.254-.516.254zm0 0"/><path style="stroke:none;fill-rule:nonzero;fill:#5067b2;fill-opacity:1" d="M1086.102 279.691a22.783 22.783 0 0 1-.434 4.402 22.805 22.805 0 0 1-1.285 4.239 22.345 22.345 0 0 1-.95 2.004 22.162 22.162 0 0 1-1.136 1.898 23.584 23.584 0 0 1-1.32 1.782 22.73 22.73 0 0 1-4.91 4.449 22.31 22.31 0 0 1-3.906 2.086c-.684.285-1.38.531-2.087.746a22.432 22.432 0 0 1-6.554.973c-.739 0-1.477-.036-2.211-.11a22.51 22.51 0 0 1-6.43-1.61 22.31 22.31 0 0 1-5.684-3.405 22.73 22.73 0 0 1-4.449-4.91 22.31 22.31 0 0 1-2.086-3.902 22.806 22.806 0 0 1-1.285-4.238 21.621 21.621 0 0 1-.324-2.193 21.992 21.992 0 0 1-.11-2.21c0-.743.036-1.481.11-2.215a22.432 22.432 0 0 1 .863-4.34c.215-.711.461-1.407.746-2.086a22.31 22.31 0 0 1 2.086-3.906c.41-.614.852-1.207 1.32-1.782a22.73 22.73 0 0 1 4.91-4.449c.614-.41 1.247-.789 1.899-1.137a22.344 22.344 0 0 1 4.09-1.695 22.51 22.51 0 0 1 6.555-.973c.742 0 1.476.036 2.214.11a22.432 22.432 0 0 1 6.426 1.61 22.85 22.85 0 0 1 3.906 2.086c.614.41 1.207.85 1.778 1.32a22.73 22.73 0 0 1 3.133 3.129 24.4 24.4 0 0 1 1.32 1.78 22.85 22.85 0 0 1 2.832 5.993 22.432 22.432 0 0 1 .973 6.554zm0 0"/><path style="stroke:none;fill-rule:nonzero;fill:#fff;fill-opacity:1" d="M1056.594 275.586c0 .476-.094.934-.274 1.375a3.55 3.55 0 0 1-.78 1.164 3.5 3.5 0 0 1-1.165.777 3.54 3.54 0 0 1-1.375.274 3.54 3.54 0 0 1-1.375-.274 3.612 3.612 0 0 1-1.945-1.941 3.598 3.598 0 0 1 1.945-4.695 3.54 3.54 0 0 1 1.375-.274c.477 0 .934.09 1.375.274a3.56 3.56 0 0 1 1.164.777 3.598 3.598 0 0 1 1.055 2.543zM1077.633 275.586a3.601 3.601 0 0 1-1.05 2.54 3.516 3.516 0 0 1-1.169.776 3.52 3.52 0 0 1-1.371.274c-.477 0-.938-.09-1.375-.274a3.516 3.516 0 0 1-1.168-.777 3.601 3.601 0 0 1-1.05-2.54 3.618 3.618 0 0 1 1.05-2.543 3.576 3.576 0 0 1 1.168-.776 3.526 3.526 0 0 1 1.375-.274c.473 0 .934.09 1.371.274a3.576 3.576 0 0 1 2.219 3.32zM1055.95 291.363a.98.98 0 0 1-.641-.254c-.254-.386-.13-.77.129-1.027 2.308-1.797 5.132-2.695 8.082-2.695 2.953 0 5.773.898 8.082 2.695.386.258.386.77.128 1.027-.253.254-.77.383-1.023.13-2.055-1.544-4.621-2.313-7.187-2.313-2.567 0-5.13.77-7.184 2.312-.129.125-.258.125-.387.125zM1057.105 270.836c-.128 0-.257 0-.382-.125l-5.774-3.336c-.387-.258-.515-.645-.258-1.027.258-.387.641-.516 1.028-.258l5.773 3.336c.383.258.512.64.254 1.027a.7.7 0 0 1-.64.383zM1070.063 270.836a.704.704 0 0 1-.641-.383c-.258-.387-.129-.898.258-1.027l5.773-3.336c.383-.258.899-.13 1.027.258.254.382.125.898-.257 1.027l-5.774 3.336c-.129.125-.258.125-.387.125zm0 0"/><path style="stroke:none;fill-rule:nonzero;fill:#5067b2;fill-opacity:1" d="M1209.137 279.691c0 .739-.035 1.477-.106 2.211a22.792 22.792 0 0 1-2.558 8.434c-.348.652-.73 1.285-1.141 1.898a22.567 22.567 0 0 1-25.328 9.063 22.092 22.092 0 0 1-2.086-.746 22.31 22.31 0 0 1-5.684-3.406 22.73 22.73 0 0 1-3.133-3.129 23.584 23.584 0 0 1-1.32-1.782c-.41-.613-.789-1.246-1.136-1.898a23.473 23.473 0 0 1-.95-2.004 22.806 22.806 0 0 1-1.285-4.238 22.782 22.782 0 0 1-.433-4.403c0-.742.039-1.48.109-2.214a22.432 22.432 0 0 1 1.61-6.426 22.85 22.85 0 0 1 2.086-3.906 24.4 24.4 0 0 1 1.32-1.782 22.73 22.73 0 0 1 4.91-4.449 22.85 22.85 0 0 1 5.992-2.832 22.432 22.432 0 0 1 6.555-.973c.738 0 1.476.036 2.21.11.739.07 1.47.18 2.196.324a22.728 22.728 0 0 1 4.234 1.285c.684.285 1.352.598 2.004.95.652.347 1.285.726 1.899 1.136.617.41 1.21.852 1.78 1.32a22.73 22.73 0 0 1 4.45 4.91 22.311 22.311 0 0 1 2.086 3.906c.285.68.531 1.376.746 2.087.215.707.395 1.422.54 2.148.144.727.253 1.457.327 2.192.07.734.106 1.472.106 2.214zm0 0"/><path style="stroke:none;fill-rule:nonzero;fill:#fff;fill-opacity:1" d="M1179.629 273.148c0 .477-.09.934-.274 1.375a3.54 3.54 0 0 1-.777 1.164 3.516 3.516 0 0 1-1.168.778 3.507 3.507 0 0 1-1.37.273c-.477 0-.938-.09-1.376-.273a3.556 3.556 0 0 1-1.168-.777 3.601 3.601 0 0 1-1.05-2.54 3.618 3.618 0 0 1 1.05-2.543 3.618 3.618 0 0 1 2.543-1.05c.477 0 .934.09 1.371.273a3.576 3.576 0 0 1 2.219 3.32zM1200.672 273.148c0 .477-.094.934-.274 1.375a3.612 3.612 0 0 1-1.945 1.942 3.54 3.54 0 0 1-1.375.273 3.54 3.54 0 0 1-1.375-.273 3.5 3.5 0 0 1-1.164-.777 3.55 3.55 0 0 1-.781-1.165 3.598 3.598 0 0 1 1.945-4.695 3.54 3.54 0 0 1 1.375-.273c.477 0 .934.09 1.375.273a3.56 3.56 0 0 1 1.164.777 3.598 3.598 0 0 1 1.055 2.543zM1191.434 290.21h-9.88c-.386 0-.769-.386-.769-.769 0-.386.383-.77.77-.77h9.879c.382 0 .77.384.77.77 0 .383-.259.77-.77.77zm0 0"/><path style="stroke:none;fill-rule:nonzero;fill:#5067b2;fill-opacity:1" d="M1258.148 341.785h-204.761a3.723 3.723 0 0 1-3.723-3.719 3.724 3.724 0 0 1 3.723-3.722h204.89a3.723 3.723 0 0 1 3.72 3.722c-.13 2.051-1.798 3.72-3.849 3.72zm0 0"/><path style="stroke:none;fill-rule:nonzero;fill:#ffc043;fill-opacity:1" d="M1185.402 341.785h-132.015a3.723 3.723 0 0 1-3.723-3.719 3.724 3.724 0 0 1 3.723-3.722h132.015zm0 0"/><path style="stroke:none;fill-rule:nonzero;fill:#ffc043;fill-opacity:1" d="M1198.105 338.195c0 .614-.062 1.223-.18 1.825a9.42 9.42 0 0 1-.534 1.757 9.343 9.343 0 0 1-.864 1.621 9.432 9.432 0 0 1-4.203 3.45 9.59 9.59 0 0 1-1.758.53c-.605.122-1.21.18-1.828.18a9.297 9.297 0 0 1-1.828-.18 9.362 9.362 0 0 1-5.957-3.98 9.103 9.103 0 0 1-.867-1.62 9.126 9.126 0 0 1-.531-1.758 9.229 9.229 0 0 1-.18-1.825c0-.617.059-1.226.18-1.828a9.126 9.126 0 0 1 .53-1.758 9.24 9.24 0 0 1 .868-1.62c.34-.509.727-.985 1.164-1.419a9.216 9.216 0 0 1 1.418-1.164 9.636 9.636 0 0 1 1.621-.867 9.46 9.46 0 0 1 1.754-.531 9.297 9.297 0 0 1 1.828-.18c.617 0 1.223.059 1.828.18a9.59 9.59 0 0 1 1.758.531 9.752 9.752 0 0 1 1.617.867 9.432 9.432 0 0 1 2.586 2.582 9.487 9.487 0 0 1 1.399 3.38c.117.6.18 1.21.18 1.827zM941.254 365.008l10.008-.64 30.918-1.927-1.028-15.394-.898-13.602c22.84 4.621 23.61-3.46 21.3-12.57-.515-2.055-1.667-5.648-3.21-10.008-2.18-6.289-5-13.984-7.567-20.914-2.437-6.285-4.492-11.93-5.773-15.012-.645-1.668-1.027-2.562-1.027-2.562-10.008-12.961-31.692-11.676-45.16 0-7.7 6.668-7.184 23.219-5.005 37.848 1.668 11.03 4.106 20.91 4.747 25.015 1.539 9.496 2.695 29.766 2.695 29.766zm0 0"/><path style="stroke:none;fill-rule:nonzero;fill:#2a294b;fill-opacity:1" d="M991.418 319.848a.277.277 0 0 1-.258-.258c0-.13.13-.258.258-.258l9.367-1.152c.125 0 .254.129.254.257 0 .125-.129.254-.254.254l-9.367 1.157c.129 0 0 0 0 0zM980.254 333.832c-.125 0-.125 0 0 0l-8.852-2.695c-.129 0-.254-.258-.254-.383 0-.129.254-.258.383-.258l8.723 2.695c.129 0 .258.254.258.383 0 .258-.13.258-.258.258zM969.352 249.926c8.593-2.567 18.343-8.727 24.503 1.539 6.157 10.262-10.007 27.07-20.914 32.46-10.902 5.387-13.597 11.93-10.777 23.348 2.824 11.418-6.156 25.918-23.476 27.97-3.977.515-10.52-27.583-15.141-38.106-4.617-10.52-8.594-20.14-3.078-24.633 5.515-4.488 10.39-.64 15.011-5.129 4.618-4.492 4.489-13.086 11.418-14.629 6.93-1.539 7.313 1.668 22.454-2.82zm0 0"/><path style="stroke:none;fill-rule:nonzero;fill:#ffc043;fill-opacity:1" d="M990.52 289.441c5.386 13.856 10.648 18.09 11.933 19.243 1.281 1.027-5.39 2.953-6.16 2.695-3.336-.899-5.773-21.938-5.773-21.938zm0 0"/><path style="stroke:none;fill-rule:nonzero;fill:#2a294b;fill-opacity:1" d="M991.16 297.91c0 .254-.047.5-.144.735a1.93 1.93 0 0 1-1.043 1.043c-.235.097-.48.144-.735.144a1.899 1.899 0 0 1-1.363-.562 1.93 1.93 0 0 1-.418-.625 1.894 1.894 0 0 1-.144-.735 1.899 1.899 0 0 1 .562-1.363 1.899 1.899 0 0 1 1.363-.563 1.93 1.93 0 0 1 1.777 1.188c.098.234.145.48.145.738zM983.332 292.516l5.059-5.282.925.887-5.058 5.281zm0 0"/><path style="stroke:none;fill-rule:nonzero;fill:#ffc043;fill-opacity:1" d="M920.855 375.273c4.106 4.23 5.004 10.774 2.95 16.422-9.11 25.145-43.364 122.395-62.223 116.75-22.195-6.672 15.137-91.863 27.2-111.62 10.261-16.552 22.066-31.946 32.073-21.552zm0 0"/><path style="stroke:none;fill-rule:nonzero;fill:#ffc043;fill-opacity:1" d="M862.094 451.352s-17.45 40.796-13.985 57.863c3.465 17.062 49.008 77.746 49.008 77.746l23.992-21.297s-33.484-64.531-32.972-66.2c.515-1.667 15.652-37.464 15.652-37.464zm0 0"/><path style="stroke:none;fill-rule:nonzero;fill:#ffc043;fill-opacity:1" d="M947.41 633.148h-16.293a451.804 451.804 0 0 1-12.828-15.652 99.904 99.904 0 0 1-2.953-3.848c-1.54-2.183-3.207-4.363-4.875-6.543a427.748 427.748 0 0 1-8.082-11.164c-1.281-1.793-2.695-3.718-3.977-5.644-.77-1.152-1.539-2.18-2.437-3.336a826.266 826.266 0 0 1-15.781-23.348s0-.129-.13-.129c-1.152-1.797-2.308-3.593-3.464-5.39-15.395-23.864-26.813-44.004-25.403-47.082 1.415-3.082 2.438-6.672 4.493-9.625 2.05-3.207 5.133-5.516 10.52-5.516 3.593 0 6.929 1.027 9.878 2.824.512.254 1.027.64 1.54 1.024 2.566 1.926 4.874 4.363 6.542 7.187.258.512.64 1.024.899 1.54 7.699 12.827 20.914 35.921 33.23 59.656 1.027 2.054 2.18 4.105 3.207 6.289.899 1.793 1.926 3.59 2.82 5.386.516.899.899 1.926 1.414 2.825 1.54 3.207 3.079 6.285 4.618 9.363 2.437 5.133 4.875 10.137 6.93 14.883.769 1.668 1.538 3.336 2.179 5.004 3.594 8.21 6.285 15.523 7.953 21.296zm0 0"/><path style="stroke:none;fill-rule:nonzero;fill:#2a294b;fill-opacity:1" d="M868.895 502.926c-.13 0-.258-.125-.387-.254-.13-.258 0-.516.129-.516 7.699-4.234 18.988-3.078 19.5-3.078.258 0 .386.258.386.512 0 .258-.257.387-.511.387-.13 0-11.547-1.157-18.989 2.949h-.128zm0 0"/><path style="stroke:none;fill-rule:nonzero;fill:#5067b2;fill-opacity:1" d="m927.012 357.309-11.93 75.695-5.133 32.719-4.746 6.797-16.297-7.055-10.133-4.363-19.886-8.594c7.312-20.785 17.062-42.211 26.941-57.735 20.399-32.843 41.184-37.464 41.184-37.464zm0 0"/><path style="stroke:none;fill-rule:nonzero;fill:#2a294b;fill-opacity:1" d="m915.082 432.879-5.133 32.715-4.746 6.797-16.297-7.055-10.133-4.363c6.028-26.555 18.473-55.551 18.473-55.551s7.828 12.058 17.836 27.457zm0 0"/><path style="stroke:none;fill-rule:nonzero;fill:#ffc043;fill-opacity:1" d="M1030.035 633.148h-51.574c-.77-15.652-.258-29.378 1.281-40.414.13-1.28.387-2.437.64-3.59.259-1.414.516-2.695.77-3.98 1.028-4.488 2.184-8.21 3.723-11.16.129-.258.258-.512.383-.77 2.183-3.976 4.75-6.414 7.699-6.93 3.594-.511 7.313 1.54 11.16 5.903 1.926 2.184 3.98 5.004 5.903 8.211.128.258.386.64.515.898 7.184 11.805 13.985 30.024 19.5 51.832zM949.465 633.148h-49.012c1.668-5.132 3.336-10.007 5.133-14.496.387-.898.64-1.797 1.027-2.566 1.282-3.078 2.567-6.16 3.848-8.98 2.309-5.004 4.621-9.368 6.93-13.215 2.82-4.746 5.644-8.47 8.468-11.164 1.41-1.41 2.82-2.563 4.23-3.336 2.184-1.282 4.364-1.793 6.419-1.41.64.128 1.152.257 1.793.64 3.21 1.543 5.773 5.52 7.699 11.547 1.156 3.723 2.055 8.21 2.695 13.344.13 1.539.383 3.207.512 4.875.516 7.183.64 15.523.258 24.761zm0 0"/><path style="stroke:none;fill-rule:nonzero;fill:#2a294b;fill-opacity:1" d="M863.25 610.57s42.207 23.094 98.531-8.597c56.196-31.688 2.438-36.438.512-36.438-53.242 2.055-99.043 45.035-99.043 45.035zm0 0"/><path style="stroke:none;fill-rule:nonzero;fill:#2a294b;fill-opacity:1" d="M1035.938 633.148h-144.72l2.31-13.726.128-1.027 3.59-21.684 1.027-6.414.899-5.133.512-2.691 3.082-.258 2.691-.258 18.988-1.922 5.645-.515 8.086-.77 46.699-4.617 1.027-.13 18.344-1.796 4.875-.512 14.629-1.41s.383 1.922 1.023 5.387c2.055 9.621 6.29 31.433 11.165 57.476zm0 0"/><path style="stroke:none;fill-rule:nonzero;fill:#5067b2;fill-opacity:1" d="M1024.773 575.8c-3.976 5.645-83.39 14.497-128.296 21.04-19.243 2.824-33.102 13.73-33.102 13.73 15.91-46.703 27.973-133.687 30.793-193.472 2.824-59.79 44.777-63.895 44.777-63.895l44.52 3.852c15.906 11.16 30.148 30.66 32.074 74.027.125 2.438.254 5.004.512 7.824 1.027 13.602 3.207 30.278 5.515 47.086 1.157 8.469 2.055 17.45 2.825 26.172 2.566 31.047 2.82 60.043.382 63.637zm0 0"/><path style="stroke:none;fill-rule:nonzero;fill:#2a294b;fill-opacity:1" d="m936.89 353.46 2.954-6.542 42.078 3.594 2.055 6.797zM1024.262 512.164c-23.864-38.36-43.235-103.406-43.235-103.406s23.864 16.68 34.895 30.02c1.027 13.6 3.207 30.28 5.515 47.085 1.157 8.598 2.055 17.578 2.825 26.301zm0 0"/><path style="stroke:none;fill-rule:nonzero;fill:#ffc043;fill-opacity:1" d="M985.773 366.035c5.903-1.156 11.801 1.797 15.266 6.543 15.91 21.426 78.133 103.664 62.996 116.238-17.836 14.754-68.254-63.378-78.008-84.293-8.082-17.32-14.367-35.796-.254-38.488zm0 0"/><path style="stroke:none;fill-rule:nonzero;fill:#ffc043;fill-opacity:1" d="M1140.371 349.867s-40.543 137.281-71.078 147.801c-30.535 10.52-59.145-42.594-59.145-42.594l38.235-26.176 6.672 10.649 2.949 4.621 64.535-106.23zm0 0"/><path style="stroke:none;fill-rule:nonzero;fill:#ffc043;fill-opacity:1" d="M1058.004 444.168s-6.672 5.773-8.723 16.68c0 0-.77-9.496 5.774-21.301zM1051.203 482.527c-3.848-6.414-3.465-14.496 0-21.168 16.293-31.046 70.05-127.144 85.192-126.886 13.984.257-55.297 151.648-64.536 152.93-7.054.898-15.394 3.85-20.656-4.876zm0 0"/><path style="stroke:none;fill-rule:nonzero;fill:#5067b2;fill-opacity:1" d="m1049.922 429.543-41.442 27.969c-1.28-1.926-4.363-6.801-5.644-8.985-24.246-40.41-58.504-79.414-19.629-91.472 0 0 25.79 4.36 41.313 31.687 8.851 15.14 20.14 31.817 25.402 40.801zm0 0"/><path style="stroke:none;fill-rule:nonzero;fill:#ffc043;fill-opacity:1" d="m1122.54 337.938 15.265 13.472s11.547-6.031 17.449-14.758c1.668-2.437 2.82-5 3.336-7.695 1.922-12.832-6.672-13.984-10.137-19.117-2.566-3.977 12.828-13.985 9.879-16.164-2.95-2.184-16.68 7.953-24.89 15.777-8.212 7.957-9.364 19.887-8.981 22.711.258 2.95-1.922 5.774-1.922 5.774zm0 0"/><path style="stroke:none;fill-rule:nonzero;fill:#2a294b;fill-opacity:1" d="M1049.406 461.23c-.125 0-.125 0 0 0-.254 0-.383-.257-.383-.511 2.051-10.906 8.723-16.809 8.852-16.938.129-.129.387-.129.64 0 .13.13.13.387 0 .64-.124 0-6.542 5.774-8.593 16.427-.258.254-.387.382-.516.382zM836.434 633.02h465.718v2.824H836.434zm0 0"/><path style="stroke:none;fill-rule:nonzero;fill:#ffc043;fill-opacity:1" d="M1208.754 152.418a27.403 27.403 0 0 1-.523 5.309 27.276 27.276 0 0 1-2.688 7.515 27.735 27.735 0 0 1-2.965 4.434 25.976 25.976 0 0 1-1.793 1.976 27.729 27.729 0 0 1-1.976 1.793 27.06 27.06 0 0 1-6.848 4.102c-.82.34-1.66.64-2.512.898-.851.262-1.715.477-2.59.649-.87.176-1.754.304-2.64.394a27.58 27.58 0 0 1-5.332 0 27.415 27.415 0 0 1-7.742-1.941 26.59 26.59 0 0 1-2.41-1.14c-.79-.419-1.551-.88-2.294-1.372a27.79 27.79 0 0 1-4.121-3.383 27.729 27.729 0 0 1-1.793-1.976 29.248 29.248 0 0 1-1.59-2.145 28.817 28.817 0 0 1-1.37-2.289 27.454 27.454 0 0 1-2.04-4.926 27.276 27.276 0 0 1-1.043-10.562 27.415 27.415 0 0 1 3.082-10.156c.422-.786.88-1.547 1.371-2.29a27.666 27.666 0 0 1 1.59-2.144 27.729 27.729 0 0 1 1.793-1.976 27.79 27.79 0 0 1 4.121-3.383 26.13 26.13 0 0 1 2.293-1.371c.786-.422 1.59-.801 2.41-1.145.825-.34 1.66-.64 2.516-.898a28.114 28.114 0 0 1 2.586-.649 27.403 27.403 0 0 1 5.309-.523 27.585 27.585 0 0 1 5.304.523 27.044 27.044 0 0 1 7.516 2.691c.785.419 1.55.876 2.29 1.372a26.692 26.692 0 0 1 2.144 1.59 27.729 27.729 0 0 1 1.976 1.792c.633.63 1.23 1.29 1.793 1.977a27.735 27.735 0 0 1 2.965 4.434 27.228 27.228 0 0 1 3.21 12.82zm0 0"/><path style="stroke:none;fill-rule:nonzero;fill:#fff;fill-opacity:1" d="m1181.04 163.453-10.52-9.367c-2.95-2.691-3.207-7.184-.641-10.133 2.695-2.953 7.184-3.21 10.137-.644l1.28 1.156 1.54-1.281c3.082-2.567 7.57-2.055 10.137 1.023 2.566 3.082 2.05 7.57-1.028 10.137zm0 0"/><path style="stroke:none;fill-rule:nonzero;fill:#ffc043;fill-opacity:1" d="M1320.242 441.73c0 .98-.047 1.965-.144 2.942-.094.98-.239 1.95-.43 2.914a30.003 30.003 0 0 1-.719 2.86 29.292 29.292 0 0 1-.992 2.773 30.669 30.669 0 0 1-1.258 2.664 30.664 30.664 0 0 1-1.515 2.527 29.976 29.976 0 0 1-3.734 4.547 29.976 29.976 0 0 1-12.513 7.5 29.264 29.264 0 0 1-5.773 1.148c-.976.098-1.957.145-2.941.145-.985 0-1.965-.047-2.942-.145a29.34 29.34 0 0 1-5.773-1.148 30.137 30.137 0 0 1-5.438-2.25 30.027 30.027 0 0 1-9.054-7.434 28.663 28.663 0 0 1-1.754-2.363 29.615 29.615 0 0 1-1.516-2.527 30.704 30.704 0 0 1-1.262-2.664 29.983 29.983 0 0 1-1.707-5.633 30.464 30.464 0 0 1-.433-2.914 30.828 30.828 0 0 1-.145-2.942c0-.984.051-1.964.145-2.945a29.906 29.906 0 0 1 3.402-11.207c.461-.867.969-1.71 1.516-2.527a29.839 29.839 0 0 1 10.809-9.797 30.008 30.008 0 0 1 20.008-2.969 29.983 29.983 0 0 1 5.632 1.707 30.704 30.704 0 0 1 5.191 2.774 29.63 29.63 0 0 1 2.364 1.757 29.054 29.054 0 0 1 2.183 1.977 30.811 30.811 0 0 1 1.98 2.184 30.027 30.027 0 0 1 3.27 4.895 30.137 30.137 0 0 1 2.25 5.437 29.434 29.434 0 0 1 1.148 5.77c.098.98.145 1.96.145 2.944zm0 0"/><path style="stroke:none;fill-rule:nonzero;fill:#fff;fill-opacity:1" d="M1283.293 435.57s6.289-.129 5.902-9.62c0 0 4.106-.512 4.364 2.948.254 3.465-.258 6.418-.258 6.418h9.879c2.054 0 3.847 1.668 3.976 3.72.258 5.26.13 14.37-4.105 15.394-5.903 1.539-10.778.77-11.93.386-1.156-.515-5.773-1.156-7.957-1.156"/><path style="stroke:none;fill-rule:nonzero;fill:#2a294b;fill-opacity:1" d="M1282.652 454.176h-5.386a.877.877 0 0 1-.899-.899v-17.449c0-.512.383-.898.899-.898h5.386a.88.88 0 0 1 .899.898v17.45a.88.88 0 0 1-.899.898zm0 0"/><g clip-path="url(#a)"><path style="stroke:none;fill-rule:nonzero;fill:#2a294b;fill-opacity:1" d="M941.895 228.242H818.859a5.146 5.146 0 0 1-5.132-5.133v-35.664a5.146 5.146 0 0 1 5.132-5.132h123.036a5.146 5.146 0 0 1 5.132 5.132v35.664c-.129 2.825-2.308 5.133-5.132 5.133zm0 0"/></g><path style="stroke:none;fill-rule:nonzero;fill:#ffc043;fill-opacity:1" d="m844.902 192.703 4.106 8.34 9.11 1.285-6.544 6.414 1.54 9.238-8.212-4.363-8.21 4.363 1.538-9.238-6.543-6.414 9.11-1.285zM880.313 192.703l4.105 8.34 9.11 1.285-6.544 6.414 1.54 9.238-8.212-4.363-8.21 4.363 1.539-9.238-6.543-6.414 9.109-1.285zm0 0"/><path style="stroke:none;fill-rule:nonzero;fill:#e5d7ff;fill-opacity:1" d="m915.723 192.703 4.105 8.34 9.238 1.285-6.671 6.414 1.539 9.238-8.211-4.363-8.211 4.363 1.668-9.238-6.672-6.414 9.11-1.285zm0 0"/><g clip-path="url(#b)"><g clip-path="url(#c)"><g clip-path="url(#d)" transform="translate(1023 121)"><g clip-path="url(#e)"><g clip-path="url(#f)"><path style="stroke:none;fill-rule:nonzero;fill:#ef6f9d;fill-opacity:1" d="M.988.57h68.235v68.235H.988zm0 0"/></g></g></g></g></g><g clip-path="url(#g)"><g clip-path="url(#h)"><g clip-path="url(#i)" transform="translate(825 336)"><g clip-path="url(#j)"><g clip-path="url(#k)"><path style="stroke:none;fill-rule:nonzero;fill:#ef6f9d;fill-opacity:1" d="M.445.766h68.23V69H.446zm0 0"/></g></g></g></g></g><g clip-path="url(#l)"><path style="stroke:none;fill-rule:nonzero;fill:#fff;fill-opacity:1" d="M1052.055 161.84s2.742 2.672 6.308 2.672c1.922 0 3.668-.996 3.668-3.067 0-4.273-12.043-3.847-12.043-11.507 0-3.668 2.746-6.52 6.7-7.165v-3.347h3.062v3.277c4.137.356 6.273 2.602 6.273 2.602l-1.988 3.754s-2.43-2.207-5.594-2.207c-2.136 0-3.812 1.246-3.812 3.027 0 4.242 12.008 3.492 12.008 11.48 0 3.633-2.528 6.735-6.88 7.305v3.277h-3.07v-3.296c-4.597-.536-7.128-3.348-7.128-3.348zm0 0"/></g><g clip-path="url(#m)"><path style="stroke:none;fill-rule:nonzero;fill:#fff;fill-opacity:1" d="M848.102 369.465c-1.11-.985-1.72-2.32-1.832-4.004-.032-.48-.043-1.11-.043-1.899 0-.843.011-1.519.043-2.023.109-1.742.699-3.117 1.77-4.133 1.07-1.011 2.573-1.515 4.51-1.515 1.942 0 3.45.504 4.532 1.515 1.082 1.012 1.68 2.39 1.79 4.133.058 1.012.085 1.688.085 2.024 0 .312-.027.94-.086 1.898-.113 1.684-.723 3.02-1.832 4.004-1.113.984-2.61 1.476-4.488 1.473-1.856 0-3.34-.493-4.45-1.473zm.359 15.914a.741.741 0 0 1-.25-.613.706.706 0 0 1 .164-.465l20.781-27.399c.227-.28.438-.484.633-.609.2-.129.477-.191.848-.191h2.23c.281 0 .5.078.656.234a.797.797 0 0 1 .23.61.713.713 0 0 1-.167.46l-20.781 27.403c-.18.234-.39.441-.633.613-.2.125-.465.187-.8.187h-2.235c-.282 0-.508-.078-.676-.23zm5.879-18.317c.383-.48.613-1.082.7-1.812.054-.957.081-1.547.081-1.773 0-.309-.027-.883-.082-1.727-.059-.73-.285-1.34-.676-1.832-.394-.492-.996-.738-1.812-.738-.79 0-1.38.246-1.77.738-.394.492-.62 1.102-.676 1.832-.027.422-.043 1-.043 1.727 0 .703.016 1.293.043 1.773.055.703.274 1.297.653 1.79.379.491.976.737 1.793.737.816 0 1.41-.238 1.789-.714zm10.625 17.262c-1.113-1.027-1.723-2.398-1.836-4.113-.027-.477-.04-1.11-.04-1.895 0-.816.013-1.476.04-1.98.113-1.742.703-3.117 1.773-4.129 1.067-1.016 2.567-1.52 4.508-1.52 1.969 0 3.488.504 4.555 1.52 1.066 1.012 1.656 2.387 1.77 4.129a43.37 43.37 0 0 1 .085 1.98c0 .309-.03.942-.086 1.895-.113 1.719-.722 3.09-1.832 4.113-1.113 1.028-2.609 1.54-4.492 1.535-1.851 0-3.336-.511-4.445-1.535zm6.281-2.488c.379-.492.594-1.09.652-1.79.055-.956.086-1.562.086-1.816 0-.277-.03-.84-.086-1.687-.058-.727-.28-1.34-.675-1.832s-.996-.738-1.813-.738c-.785 0-1.375.246-1.77.738-.394.492-.617 1.105-.671 1.832-.028.426-.043.984-.043 1.687 0 .735.011 1.336.043 1.817.054.7.273 1.297.652 1.789s.977.738 1.79.738c.843 0 1.456-.246 1.835-.738zm0 0"/></g><path style="stroke:none;fill-rule:nonzero;fill:#ef6f9d;fill-opacity:1" d="M1398.793 134.828c-16.207 0-35.188-3.91-58.898-14.183-38.852-16.832-55.7-53.497-62.989-81.293-14.52-55.38-3.82-125.657 24.883-163.477 41.73-54.969 86.129-47.328 142.309-37.66 25.843 4.445 55.168 9.492 87.37 8.512 39.493-1.188 74.575 7.84 104.329 26.89 25.84 16.547 46.723 40.328 60.41 68.801 24.223 50.437 21.984 108.164-5.457 140.387-21.434 25.168-55.93 32.293-97.129 20.086-67.68-20.051-100.453-3.36-132.125 12.777-19.105 9.758-37.59 19.16-62.703 19.16zM1302.5-123.574l.71.535c-28.398 37.43-38.976 107.047-24.577 161.945 7.18 27.407 23.762 63.555 61.972 80.102 59.684 25.86 89.024 10.914 120.094-4.903 31.988-16.3 65.082-33.148 133.438-12.906 40.504 12 74.324 5.051 95.261-19.531 26.997-31.707 29.149-88.633 5.207-138.469-14.18-29.539-58.453-97.945-163.066-94.695-32.418.96-61.797-4.066-87.726-8.547-55.594-9.578-99.508-17.133-140.583 36.984zm0 0"/><g clip-path="url(#n)"><path style="stroke:none;fill-rule:nonzero;fill:#2a294b;fill-opacity:1" d="M847.23 138.887c-.714-.399-2.414-2.176-2.511-2.63-.23-1.038.566-1.89 1.625-1.741 1.562.218 2.023.398 2.613 1.03.77.825 1.059 1.743.77 2.438-.38.922-1.641 1.375-2.497.903zm20.836-5.969c-.593-.406-.765-.68-1.046-1.64-.141-.485-.348-1.16-.461-1.505-.563-1.73 1.132-2.964 2.648-1.933.922.625 1.203 1.48 1.29 3.898.038 1.117-1.466 1.844-2.43 1.18zm-39.726-5.508c-.715-.605-.973-1.312-.899-2.48.055-.883.125-1.086.504-1.41.559-.48 1.516-.5 2.313-.047.797.453 1.176 1.023 1.258 1.89.066.676.015.813-.586 1.57-.63.797-.696.837-1.414.833-.547 0-.868-.098-1.176-.356zm62.023-3.953c-1.02-.539-1.883-2.508-1.648-3.762.152-.82.867-1.496 1.578-1.496.98 0 1.336.254 2.172 1.543.742 1.145.8 1.301.8 2.223 0 .91-.038 1.023-.488 1.402-.605.512-1.55.543-2.414.09zm-43.605-.648c-.5-.145-1.946-1.504-2.156-2.024-.059-.152-.114-.758-.118-1.351-.011-1.004.024-1.118.512-1.649.902-.988 2.016-.754 2.957.617 1.387 2.012 1.36 3.762-.058 4.356-.301.125-.563.219-.586.21a66.222 66.222 0 0 1-.551-.16zm15.265-2.496c-.761-.387-1.117-.942-1.23-1.91-.094-.794-.074-.852.465-1.391.996-1 2.27-.692 2.992.718.363.711.371.817.145 1.633-.114.41-.336.711-.68.918-.625.383-.988.39-1.692.031zm13.875-6.852c-1.386-.684-2.148-2.078-1.71-3.125.332-.79.867-1.227 1.503-1.227.696 0 1.352.391 1.711 1.02.157.273.442.676.641.894.527.586.61 1.032.312 1.66-.261.551-1.043 1.055-1.617 1.047-.164 0-.539-.125-.84-.27zm26.258-1.57c-.605-.329-1.058-1.305-1.234-2.664-.25-1.915-.211-2.286.289-2.844.363-.406.601-.516 1.27-.582.777-.074.855-.047 1.386.484.473.473.563.672.563 1.27 0 .39.047 1.363.101 2.16l.102 1.45-.488.487c-.555.555-1.254.637-1.989.239zm-71.015-1.489c-.766-.465-1.227-1.23-1.305-2.156-.059-.719-.016-.863.367-1.246.945-.945 2.04-.691 3.082.723.778 1.05.903 1.445.656 2.047-.375.902-1.82 1.23-2.8.632zm58.394-3.336c-1.012-.343-1.695-1.164-1.808-2.16-.102-.926.02-1.394.53-2 .595-.707 1.45-.926 2.208-.566.629.297 1.367 1.226 1.367 1.719 0 .164.145.48.32.703.344.441.418 1.312.153 1.808-.215.403-.985.79-1.54.774-.245-.008-.8-.133-1.23-.278zm-70.27-3.898c-1.163-.785-1.84-2.602-1.43-3.844.395-1.191 1.747-1.61 2.677-.828.93.781 1.277 1.504 1.39 2.89.102 1.247.09 1.302-.324 1.716-.562.558-1.539.59-2.312.066zm27.212-.27c-1.118-.734-1.586-2.476-.848-3.148.504-.46.996-.578 1.61-.375 1.03.34 1.98 1.805 1.773 2.734-.219 1.004-1.57 1.426-2.54.79zm16.378-.054c-.195-.11-.734-.621-1.199-1.14l-.84-.946v-1.242c0-1.145.036-1.274.442-1.684.367-.367.582-.441 1.25-.441.734 0 .855.054 1.418.656.605.652.953 1.496.957 2.324 0 .238.07.473.16.527.086.055.16.387.16.735 0 .863-.55 1.422-1.39 1.414-.333-.004-.762-.094-.958-.203zm29.489-10.828c-.73-.246-1.395-1.067-1.696-2.094-.394-1.356-.336-1.957.235-2.531.426-.426.57-.477 1.16-.407 1.406.157 2.332.942 2.344 1.98.004.25.11.595.238.763.379.503.293 1.296-.203 1.847-.5.555-1.258.715-2.078.442zm-15.567-.778c-1.406-1.11-1.468-3.82-.101-4.527 1.066-.55 2.133-.078 2.785 1.23.695 1.395.484 2.407-.664 3.204-.742.511-1.442.546-2.02.093zm-45.3-1.558c-.766-.473-1.782-1.535-1.895-1.993-.176-.695.254-1.44 1.098-1.914 1-.558 1.5-.539 2.289.098.351.285.828.645 1.05.805.333.23.407.414.407.984 0 .621-.086.793-.774 1.508-.867.906-1.351 1.02-2.175.512zm22.128-6.192c-.918-.593-1.277-1.418-1.011-2.312.277-.926.957-1.567 1.66-1.567.445 0 .766.18 1.594.883 1.07.914 1.324 1.387 1.082 2.02-.192.492-.598.824-1.418 1.14-.914.356-1.137.336-1.907-.164zm19.891-4.945c-.367-.133-1.433-1.191-1.687-1.676-.633-1.203-.008-2.265 1.441-2.445 1.277-.16 1.29-.156 3.234 1.707.489.465.48 1.3-.011 1.797-.52.515-2.258.875-2.977.617zm0 0"/></g></svg>