<svg xmlns="http://www.w3.org/2000/svg" xmlns:xlink="http://www.w3.org/1999/xlink" width="200" zoomAndPan="magnify" viewBox="0 0 150 149.999998" height="200" preserveAspectRatio="xMidYMid meet" version="1.2"><defs><clipPath id="56a1aa0077"><path d="M 19 17 L 138.753906 17 L 138.753906 121 L 19 121 Z M 19 17 "/></clipPath><clipPath id="3793d7c8c1"><path d="M 116 135 L 129 135 L 129 146.9375 L 116 146.9375 Z M 116 135 "/></clipPath><clipPath id="f177875727"><path d="M 55 40 L 119 40 L 119 146.9375 L 55 146.9375 Z M 55 40 "/></clipPath><clipPath id="2946c2eaa6"><path d="M 24 113 L 48 113 L 48 146.9375 L 24 146.9375 Z M 24 113 "/></clipPath><clipPath id="8facdfefd1"><path d="M 54 130 L 68 130 L 68 146.9375 L 54 146.9375 Z M 54 130 "/></clipPath><clipPath id="fc68ffadf3"><path d="M 36 133 L 49 133 L 49 146.9375 L 36 146.9375 Z M 36 133 "/></clipPath><clipPath id="ccccb7cb0a"><path d="M 34 131 L 69 131 L 69 146.9375 L 34 146.9375 Z M 34 131 "/></clipPath><clipPath id="dc4fd3269c"><path d="M 21 146 L 133 146 L 133 146.9375 L 21 146.9375 Z M 21 146 "/></clipPath><clipPath id="f533c0e3ae"><path d="M 15.753906 39 L 48 39 L 48 50 L 15.753906 50 Z M 15.753906 39 "/></clipPath><clipPath id="3e60446bc9"><path d="M 61.070312 23.984375 L 70.519531 23.984375 L 70.519531 33.433594 L 61.070312 33.433594 Z M 61.070312 23.984375 "/></clipPath><clipPath id="2de58668c7"><path d="M 65.796875 23.984375 C 63.1875 23.984375 61.070312 26.101562 61.070312 28.707031 C 61.070312 31.316406 63.1875 33.433594 65.796875 33.433594 C 68.402344 33.433594 70.519531 31.316406 70.519531 28.707031 C 70.519531 26.101562 68.402344 23.984375 65.796875 23.984375 Z M 65.796875 23.984375 "/></clipPath><clipPath id="0b2a377970"><path d="M 0.0703125 0.984375 L 9.519531 0.984375 L 9.519531 10.433594 L 0.0703125 10.433594 Z M 0.0703125 0.984375 "/></clipPath><clipPath id="a905ad8879"><path d="M 4.796875 0.984375 C 2.1875 0.984375 0.0703125 3.101562 0.0703125 5.707031 C 0.0703125 8.316406 2.1875 10.433594 4.796875 10.433594 C 7.402344 10.433594 9.519531 8.316406 9.519531 5.707031 C 9.519531 3.101562 7.402344 0.984375 4.796875 0.984375 Z M 4.796875 0.984375 "/></clipPath><clipPath id="be3ce4d928"><rect x="0" width="10" y="0" height="11"/></clipPath><clipPath id="aff63f437d"><path d="M 18.132812 89.722656 L 25.597656 89.722656 L 25.597656 97.1875 L 18.132812 97.1875 Z M 18.132812 89.722656 "/></clipPath><clipPath id="2be9551b49"><path d="M 21.863281 89.722656 C 19.800781 89.722656 18.132812 91.390625 18.132812 93.453125 C 18.132812 95.515625 19.800781 97.1875 21.863281 97.1875 C 23.925781 97.1875 25.597656 95.515625 25.597656 93.453125 C 25.597656 91.390625 23.925781 89.722656 21.863281 89.722656 Z M 21.863281 89.722656 "/></clipPath><clipPath id="9cc64c6e73"><path d="M 0.132812 0.722656 L 7.597656 0.722656 L 7.597656 8.1875 L 0.132812 8.1875 Z M 0.132812 0.722656 "/></clipPath><clipPath id="f3ca6aaba4"><path d="M 3.863281 0.722656 C 1.800781 0.722656 0.132812 2.390625 0.132812 4.453125 C 0.132812 6.515625 1.800781 8.1875 3.863281 8.1875 C 5.925781 8.1875 7.597656 6.515625 7.597656 4.453125 C 7.597656 2.390625 5.925781 0.722656 3.863281 0.722656 Z M 3.863281 0.722656 "/></clipPath><clipPath id="1496789e72"><rect x="0" width="8" y="0" height="9"/></clipPath><clipPath id="e94f600b3f"><path d="M 64.027344 25.335938 L 67.777344 25.335938 L 67.777344 32.085938 L 64.027344 32.085938 Z M 64.027344 25.335938 "/></clipPath><clipPath id="c918632ffa"><path d="M 19 91 L 24 91 L 24 96 L 19 96 Z M 19 91 "/></clipPath><clipPath id="3d072db7c1"><path d="M 19.886719 91.335938 L 23.632812 91.441406 L 23.53125 95.1875 L 19.78125 95.085938 Z M 19.886719 91.335938 "/></clipPath><clipPath id="6d1a524c5e"><path d="M 19.886719 91.335938 L 23.632812 91.441406 L 23.53125 95.1875 L 19.78125 95.085938 Z M 19.886719 91.335938 "/></clipPath><clipPath id="8b43c0008a"><path d="M 6.808594 6.761719 L 29.308594 6.761719 L 29.308594 24 L 6.808594 24 Z M 6.808594 6.761719 "/></clipPath></defs><g id="fe5afde72a"><g clip-rule="nonzero" clip-path="url(#56a1aa0077)"><path style=" stroke:none;fill-rule:nonzero;fill:#e5d7ff;fill-opacity:1;" d="M 134.210938 101 C 127.414062 111.683594 115.445312 111.992188 104.667969 108.410156 C 103.472656 108.011719 102.308594 107.550781 101.148438 107.09375 C 90.09375 102.253906 79.378906 109.511719 69.828125 114.410156 C 68.695312 115.082031 67.5 115.757812 66.304688 116.367188 C 57.824219 120.777344 47.875 123.011719 41.261719 115.023438 C 37.21875 110.125 38.199219 103.632812 38.167969 97.785156 C 38.136719 91.261719 35.8125 85.570312 32.351562 80.148438 C 27.730469 72.925781 21.484375 66.097656 19.859375 57.402344 C 17.535156 44.972656 22.1875 31.621094 35.261719 27.855469 C 43.558594 25.46875 52.007812 28.46875 60.242188 29.695312 C 66.949219 30.703125 73.804688 29.328125 80.050781 26.9375 C 81.183594 26.511719 82.347656 26.050781 83.480469 25.589844 C 91.074219 22.46875 98.574219 18.792969 106.566406 17.539062 C 113.699219 16.4375 120.191406 18.304688 122.914062 25.5625 C 125.304688 31.929688 123.621094 39.03125 124.691406 45.644531 C 125.273438 49.289062 126.652344 52.59375 128.304688 55.808594 C 131.152344 61.382812 134.765625 66.648438 136.417969 72.742188 C 136.875 74.484375 137.304688 76.292969 137.609375 78.097656 C 138.867188 85.90625 138.46875 94.292969 134.210938 101 Z M 134.210938 101 "/></g><path style=" stroke:none;fill-rule:nonzero;fill:#e5d7ff;fill-opacity:1;" d="M 120.039062 124.023438 L 121.109375 123.871094 L 120.128906 124.480469 C 120.710938 127.300781 122.394531 129.195312 122.515625 129.351562 C 122.914062 129.777344 124.445312 128.769531 124.722656 128.523438 C 125.824219 127.511719 126.34375 126.042969 126.835938 124.695312 C 127.414062 123.011719 127.996094 121.328125 128.703125 119.707031 C 129.285156 118.390625 129.894531 117.132812 130.507812 115.847656 L 129.957031 114.257812 L 131.304688 114.132812 C 131.425781 113.859375 131.550781 113.550781 131.671875 113.277344 C 132.222656 111.992188 132.742188 110.703125 133.234375 109.417969 C 132.988281 109.511719 126.710938 111.867188 122.914062 115.789062 L 123.40625 116.582031 L 121.964844 116.859375 C 121.476562 117.472656 121.078125 118.082031 120.773438 118.757812 C 119.914062 120.625 119.792969 122.460938 120.039062 124.023438 Z M 120.039062 124.023438 "/><path style=" stroke:none;fill-rule:nonzero;fill:#e5d7ff;fill-opacity:1;" d="M 106.902344 120.410156 C 107.023438 120.5625 107.148438 120.714844 107.269531 120.898438 C 108.433594 122.554688 109.71875 124.113281 111.097656 125.554688 L 111.769531 125.09375 C 111.769531 125.09375 111.527344 125.554688 111.402344 125.859375 C 112.597656 127.113281 113.882812 128.308594 115.230469 129.441406 C 115.597656 129.75 116.027344 130.054688 116.484375 130.269531 L 117.035156 129.65625 C 117.035156 129.65625 117.035156 130.085938 117.035156 130.421875 C 117.25 130.453125 117.433594 130.484375 117.648438 130.453125 C 117.925781 130.421875 118.964844 130.207031 119.089844 129.933594 C 119.089844 129.933594 120.464844 126.871094 117.832031 124.113281 C 117.558594 123.839844 117.25 123.59375 116.945312 123.378906 L 116.515625 123.960938 L 115.78125 122.738281 C 115.078125 122.398438 114.34375 122.15625 113.636719 121.910156 C 112.078125 121.390625 110.453125 121.023438 108.800781 120.746094 C 108.21875 120.59375 107.546875 120.503906 106.902344 120.410156 Z M 106.902344 120.410156 "/><path style=" stroke:none;fill-rule:nonzero;fill:#e5d7ff;fill-opacity:1;" d="M 125.945312 132.042969 C 127.722656 132.808594 129.804688 132.136719 131.703125 131.003906 C 131.457031 130.484375 130.96875 129.472656 130.90625 129.410156 C 130.875 129.351562 131.824219 130.117188 132.375 130.574219 C 135.070312 128.800781 137.214844 126.289062 137.214844 126.289062 C 137.214844 126.289062 130.109375 125.828125 127.476562 127.207031 C 127.230469 127.328125 126.988281 127.484375 126.804688 127.667969 L 127.046875 128.21875 L 126.464844 128.0625 C 125.148438 129.65625 125.945312 132.042969 125.945312 132.042969 Z M 125.945312 132.042969 "/><path style=" stroke:none;fill-rule:nonzero;fill:#2a294b;fill-opacity:1;" d="M 122.546875 137.25 C 122.515625 137.097656 120.191406 121.757812 129.101562 113.183594 L 129.3125 113.429688 C 120.527344 121.878906 122.824219 137.066406 122.855469 137.21875 Z M 122.546875 137.25 "/><path style=" stroke:none;fill-rule:nonzero;fill:#2a294b;fill-opacity:1;" d="M 122.179688 139.421875 C 122.179688 139.300781 121.199219 127.484375 111.34375 123.503906 L 111.464844 123.195312 C 121.507812 127.238281 122.488281 139.269531 122.488281 139.390625 Z M 122.179688 139.421875 "/><path style=" stroke:none;fill-rule:nonzero;fill:#2a294b;fill-opacity:1;" d="M 122.976562 136.484375 L 122.699219 136.332031 C 122.730469 136.269531 126.804688 128.644531 132.957031 127.269531 L 133.019531 127.574219 C 127.019531 128.921875 123.007812 136.390625 122.976562 136.484375 Z M 122.976562 136.484375 "/><g clip-rule="nonzero" clip-path="url(#3793d7c8c1)"><path style=" stroke:none;fill-rule:nonzero;fill:#2a294b;fill-opacity:1;" d="M 116.148438 135.871094 L 119.179688 146.769531 L 125.488281 146.769531 L 128.488281 135.964844 C 128.488281 135.933594 128.488281 135.933594 128.488281 135.933594 L 128.488281 135.902344 L 116.148438 135.902344 Z M 116.148438 135.871094 "/></g><g clip-rule="nonzero" clip-path="url(#f177875727)"><path style=" stroke:none;fill-rule:nonzero;fill:#2a294b;fill-opacity:1;" d="M 114.769531 147.136719 L 58.527344 147.136719 C 56.722656 147.136719 55.222656 145.667969 55.222656 143.832031 L 55.222656 43.808594 C 55.222656 42 56.691406 40.5 58.527344 40.5 L 114.742188 40.5 C 116.546875 40.5 118.046875 41.972656 118.046875 43.808594 L 118.046875 143.863281 C 118.046875 145.667969 116.578125 147.136719 114.769531 147.136719 Z M 114.769531 147.136719 "/></g><path style=" stroke:none;fill-rule:nonzero;fill:#ffffff;fill-opacity:1;" d="M 59.601562 144.75 C 58.316406 144.75 57.273438 143.710938 57.273438 142.421875 L 57.273438 45.246094 C 57.273438 43.960938 58.316406 42.921875 59.601562 42.921875 L 73.5625 42.921875 C 74.570312 42.921875 75.429688 43.746094 75.429688 44.789062 C 75.429688 45.1875 75.582031 45.582031 75.886719 45.859375 C 76.195312 46.136719 76.5625 46.320312 76.960938 46.320312 L 96.371094 46.320312 C 97.199219 46.320312 97.902344 45.644531 97.902344 44.789062 C 97.902344 44.296875 98.085938 43.839844 98.453125 43.472656 C 98.789062 43.132812 99.28125 42.921875 99.769531 42.921875 L 113.730469 42.921875 C 115.015625 42.921875 116.058594 43.960938 116.058594 45.246094 L 116.058594 142.421875 C 116.058594 143.710938 115.015625 144.75 113.730469 144.75 Z M 59.601562 144.75 "/><path style=" stroke:none;fill-rule:nonzero;fill:#2a294b;fill-opacity:1;" d="M 113.699219 43.074219 C 114.894531 43.074219 115.875 44.054688 115.875 45.246094 L 115.875 142.421875 C 115.875 143.617188 114.894531 144.597656 113.699219 144.597656 L 59.601562 144.597656 C 58.40625 144.597656 57.425781 143.617188 57.425781 142.421875 L 57.425781 45.246094 C 57.425781 44.054688 58.40625 43.074219 59.601562 43.074219 L 73.5625 43.074219 C 74.480469 43.074219 75.246094 43.839844 75.246094 44.757812 C 75.246094 45.214844 75.429688 45.644531 75.734375 45.953125 C 76.042969 46.257812 76.46875 46.441406 76.929688 46.441406 L 96.339844 46.441406 C 97.257812 46.441406 98.023438 45.675781 98.023438 44.757812 C 98.023438 44.296875 98.207031 43.871094 98.515625 43.5625 C 98.820312 43.257812 99.25 43.074219 99.707031 43.074219 L 113.699219 43.074219 M 113.699219 42.738281 L 99.738281 42.738281 C 99.1875 42.738281 98.699219 42.949219 98.300781 43.316406 C 97.933594 43.6875 97.71875 44.207031 97.71875 44.757812 C 97.71875 45.492188 97.105469 46.105469 96.371094 46.105469 L 76.960938 46.105469 C 76.59375 46.105469 76.257812 45.953125 76.011719 45.707031 C 75.765625 45.460938 75.613281 45.125 75.613281 44.757812 C 75.613281 43.65625 74.695312 42.738281 73.59375 42.738281 L 59.632812 42.738281 C 58.253906 42.738281 57.121094 43.871094 57.121094 45.214844 L 57.121094 142.394531 C 57.121094 143.769531 58.253906 144.871094 59.632812 144.871094 L 113.730469 144.871094 C 115.109375 144.871094 116.210938 143.738281 116.210938 142.394531 L 116.210938 45.246094 C 116.210938 43.871094 115.078125 42.738281 113.699219 42.738281 Z M 113.699219 42.738281 "/><path style=" stroke:none;fill-rule:nonzero;fill:#ffffff;fill-opacity:1;" d="M 90.339844 44.265625 L 79.714844 44.265625 C 79.53125 44.265625 79.378906 44.113281 79.378906 43.929688 C 79.378906 43.746094 79.53125 43.59375 79.714844 43.59375 L 90.339844 43.59375 C 90.523438 43.59375 90.675781 43.746094 90.675781 43.929688 C 90.675781 44.113281 90.523438 44.265625 90.339844 44.265625 Z M 90.339844 44.265625 "/><path style=" stroke:none;fill-rule:nonzero;fill:#ffffff;fill-opacity:1;" d="M 93.585938 43.929688 C 93.585938 44.050781 93.542969 44.148438 93.460938 44.234375 C 93.375 44.316406 93.273438 44.359375 93.15625 44.359375 C 93.039062 44.359375 92.9375 44.316406 92.851562 44.234375 C 92.769531 44.148438 92.726562 44.050781 92.726562 43.929688 C 92.726562 43.8125 92.769531 43.710938 92.851562 43.628906 C 92.9375 43.542969 93.039062 43.503906 93.15625 43.503906 C 93.273438 43.503906 93.375 43.542969 93.460938 43.628906 C 93.542969 43.710938 93.585938 43.8125 93.585938 43.929688 Z M 93.585938 43.929688 "/><path style=" stroke:none;fill-rule:nonzero;fill:#e5d7ff;fill-opacity:1;" d="M 61.46875 107.367188 L 111.863281 107.367188 L 111.863281 140.800781 L 61.46875 140.800781 Z M 61.46875 107.367188 "/><path style=" stroke:none;fill-rule:nonzero;fill:#2a294b;fill-opacity:1;" d="M 77.574219 123.105469 C 77.574219 123.316406 77.496094 123.496094 77.347656 123.644531 C 77.199219 123.796875 77.019531 123.871094 76.808594 123.871094 C 76.59375 123.871094 76.414062 123.796875 76.265625 123.644531 C 76.117188 123.496094 76.042969 123.316406 76.042969 123.105469 C 76.042969 122.894531 76.117188 122.710938 76.265625 122.5625 C 76.414062 122.414062 76.59375 122.339844 76.808594 122.339844 C 77.019531 122.339844 77.199219 122.414062 77.347656 122.5625 C 77.496094 122.710938 77.574219 122.894531 77.574219 123.105469 Z M 77.574219 123.105469 "/><path style=" stroke:none;fill-rule:nonzero;fill:#2a294b;fill-opacity:1;" d="M 84.125 123.105469 C 84.125 123.316406 84.050781 123.496094 83.898438 123.644531 C 83.75 123.796875 83.570312 123.871094 83.359375 123.871094 C 83.148438 123.871094 82.96875 123.796875 82.816406 123.644531 C 82.667969 123.496094 82.59375 123.316406 82.59375 123.105469 C 82.59375 122.894531 82.667969 122.710938 82.816406 122.5625 C 82.96875 122.414062 83.148438 122.339844 83.359375 122.339844 C 83.570312 122.339844 83.75 122.414062 83.898438 122.5625 C 84.050781 122.710938 84.125 122.894531 84.125 123.105469 Z M 84.125 123.105469 "/><path style=" stroke:none;fill-rule:nonzero;fill:#2a294b;fill-opacity:1;" d="M 90.707031 123.105469 C 90.707031 123.316406 90.632812 123.496094 90.484375 123.644531 C 90.332031 123.796875 90.152344 123.871094 89.941406 123.871094 C 89.730469 123.871094 89.550781 123.796875 89.398438 123.644531 C 89.25 123.496094 89.175781 123.316406 89.175781 123.105469 C 89.175781 122.894531 89.25 122.710938 89.398438 122.5625 C 89.550781 122.414062 89.730469 122.339844 89.941406 122.339844 C 90.152344 122.339844 90.332031 122.414062 90.484375 122.5625 C 90.632812 122.710938 90.707031 122.894531 90.707031 123.105469 Z M 90.707031 123.105469 "/><path style=" stroke:none;fill-rule:nonzero;fill:#2a294b;fill-opacity:1;" d="M 97.257812 123.105469 C 97.257812 123.316406 97.183594 123.496094 97.035156 123.644531 C 96.886719 123.796875 96.703125 123.871094 96.492188 123.871094 C 96.28125 123.871094 96.101562 123.796875 95.953125 123.644531 C 95.800781 123.496094 95.726562 123.316406 95.726562 123.105469 C 95.726562 122.894531 95.800781 122.710938 95.953125 122.5625 C 96.101562 122.414062 96.28125 122.339844 96.492188 122.339844 C 96.703125 122.339844 96.886719 122.414062 97.035156 122.5625 C 97.183594 122.710938 97.257812 122.894531 97.257812 123.105469 Z M 97.257812 123.105469 "/><path style=" stroke:none;fill-rule:nonzero;fill:#e5d7ff;fill-opacity:1;" d="M 64.070312 95.183594 L 111.464844 95.183594 L 111.464844 96.375 L 64.070312 96.375 Z M 64.070312 95.183594 "/><path style=" stroke:none;fill-rule:nonzero;fill:#e5d7ff;fill-opacity:1;" d="M 64.070312 98.765625 L 85.105469 98.765625 L 85.105469 99.957031 L 64.070312 99.957031 Z M 64.070312 98.765625 "/><path style=" stroke:none;fill-rule:nonzero;fill:#ffffff;fill-opacity:1;" d="M 65.816406 89.425781 C 63.824219 89.425781 62.171875 87.804688 62.171875 85.78125 L 62.171875 52.839844 C 62.171875 50.851562 63.796875 49.195312 65.816406 49.195312 L 128.945312 49.195312 C 130.9375 49.195312 132.589844 50.820312 132.589844 52.839844 L 132.589844 85.78125 C 132.589844 87.773438 130.96875 89.425781 128.945312 89.425781 Z M 65.816406 89.425781 "/><path style=" stroke:none;fill-rule:nonzero;fill:#2a294b;fill-opacity:1;" d="M 128.945312 49.351562 C 130.875 49.351562 132.40625 50.910156 132.40625 52.808594 L 132.40625 85.753906 C 132.40625 87.679688 130.84375 89.210938 128.945312 89.210938 L 65.816406 89.210938 C 63.886719 89.210938 62.355469 87.652344 62.355469 85.753906 L 62.355469 52.839844 C 62.355469 50.910156 63.917969 49.378906 65.816406 49.378906 L 128.945312 49.378906 M 128.945312 49.042969 L 65.816406 49.042969 C 63.734375 49.042969 62.019531 50.757812 62.019531 52.839844 L 62.019531 85.78125 C 62.019531 87.863281 63.734375 89.578125 65.816406 89.578125 L 128.945312 89.578125 C 131.027344 89.578125 132.742188 87.863281 132.742188 85.78125 L 132.742188 52.839844 C 132.742188 50.757812 131.027344 49.042969 128.945312 49.042969 Z M 128.945312 49.042969 "/><path style=" stroke:none;fill-rule:nonzero;fill:#5067b2;fill-opacity:1;" d="M 124.78125 62.238281 C 124.78125 62.59375 124.75 62.945312 124.679688 63.289062 C 124.609375 63.636719 124.507812 63.972656 124.371094 64.300781 C 124.238281 64.628906 124.070312 64.9375 123.875 65.234375 C 123.679688 65.527344 123.453125 65.800781 123.203125 66.050781 C 122.953125 66.300781 122.683594 66.523438 122.386719 66.71875 C 122.09375 66.917969 121.785156 67.082031 121.457031 67.21875 C 121.128906 67.351562 120.792969 67.457031 120.445312 67.523438 C 120.097656 67.59375 119.75 67.628906 119.394531 67.628906 C 119.039062 67.628906 118.691406 67.59375 118.34375 67.523438 C 117.996094 67.457031 117.660156 67.351562 117.332031 67.21875 C 117.003906 67.082031 116.695312 66.917969 116.402344 66.71875 C 116.105469 66.523438 115.835938 66.300781 115.585938 66.050781 C 115.332031 65.800781 115.109375 65.527344 114.914062 65.234375 C 114.71875 64.9375 114.550781 64.628906 114.417969 64.300781 C 114.28125 63.972656 114.179688 63.636719 114.109375 63.289062 C 114.039062 62.945312 114.003906 62.59375 114.007812 62.238281 C 114.003906 61.886719 114.039062 61.535156 114.109375 61.1875 C 114.179688 60.839844 114.28125 60.503906 114.417969 60.175781 C 114.550781 59.851562 114.71875 59.539062 114.914062 59.246094 C 115.109375 58.953125 115.332031 58.679688 115.585938 58.429688 C 115.835938 58.179688 116.105469 57.957031 116.402344 57.757812 C 116.695312 57.5625 117.003906 57.394531 117.332031 57.261719 C 117.660156 57.125 117.996094 57.023438 118.34375 56.953125 C 118.691406 56.886719 119.039062 56.851562 119.394531 56.851562 C 119.75 56.851562 120.097656 56.886719 120.445312 56.953125 C 120.792969 57.023438 121.128906 57.125 121.457031 57.261719 C 121.785156 57.394531 122.09375 57.5625 122.386719 57.757812 C 122.683594 57.957031 122.953125 58.179688 123.203125 58.429688 C 123.453125 58.679688 123.679688 58.953125 123.875 59.246094 C 124.070312 59.539062 124.238281 59.851562 124.371094 60.175781 C 124.507812 60.503906 124.609375 60.839844 124.679688 61.1875 C 124.75 61.535156 124.78125 61.886719 124.78125 62.238281 Z M 124.78125 62.238281 "/><path style=" stroke:none;fill-rule:nonzero;fill:#ffffff;fill-opacity:1;" d="M 117.742188 60.679688 C 117.742188 60.914062 117.65625 61.117188 117.488281 61.285156 C 117.324219 61.453125 117.121094 61.535156 116.882812 61.535156 C 116.648438 61.535156 116.445312 61.453125 116.277344 61.285156 C 116.109375 61.117188 116.027344 60.914062 116.027344 60.679688 C 116.027344 60.441406 116.109375 60.238281 116.277344 60.070312 C 116.445312 59.902344 116.648438 59.820312 116.882812 59.820312 C 117.121094 59.820312 117.324219 59.902344 117.488281 60.070312 C 117.65625 60.238281 117.742188 60.441406 117.742188 60.679688 Z M 117.742188 60.679688 "/><path style=" stroke:none;fill-rule:nonzero;fill:#ffffff;fill-opacity:1;" d="M 122.761719 60.679688 C 122.761719 60.914062 122.679688 61.117188 122.511719 61.285156 C 122.34375 61.453125 122.140625 61.535156 121.90625 61.535156 C 121.667969 61.535156 121.464844 61.453125 121.296875 61.285156 C 121.132812 61.117188 121.046875 60.914062 121.046875 60.679688 C 121.046875 60.441406 121.132812 60.238281 121.296875 60.070312 C 121.464844 59.902344 121.667969 59.820312 121.90625 59.820312 C 122.140625 59.820312 122.34375 59.902344 122.511719 60.070312 C 122.679688 60.238281 122.761719 60.441406 122.761719 60.679688 Z M 122.761719 60.679688 "/><path style=" stroke:none;fill-rule:nonzero;fill:#ffffff;fill-opacity:1;" d="M 119.394531 64.839844 C 118.691406 64.839844 118.015625 64.628906 117.464844 64.199219 C 117.375 64.136719 117.375 64.015625 117.433594 63.953125 C 117.496094 63.890625 117.617188 63.863281 117.679688 63.921875 C 118.167969 64.289062 118.78125 64.472656 119.394531 64.472656 C 120.007812 64.472656 120.617188 64.289062 121.109375 63.921875 C 121.199219 63.863281 121.292969 63.890625 121.355469 63.953125 C 121.414062 64.046875 121.382812 64.136719 121.324219 64.199219 C 120.773438 64.628906 120.097656 64.839844 119.394531 64.839844 Z M 119.394531 64.839844 "/><path style=" stroke:none;fill-rule:nonzero;fill:#5067b2;fill-opacity:1;" d="M 95.421875 62.238281 C 95.421875 62.59375 95.386719 62.945312 95.316406 63.289062 C 95.25 63.636719 95.148438 63.972656 95.011719 64.300781 C 94.875 64.628906 94.710938 64.9375 94.511719 65.234375 C 94.316406 65.527344 94.09375 65.800781 93.84375 66.050781 C 93.59375 66.300781 93.320312 66.523438 93.027344 66.71875 C 92.734375 66.917969 92.421875 67.082031 92.09375 67.21875 C 91.769531 67.351562 91.429688 67.457031 91.085938 67.523438 C 90.738281 67.59375 90.386719 67.628906 90.035156 67.628906 C 89.679688 67.628906 89.328125 67.59375 88.980469 67.523438 C 88.636719 67.457031 88.296875 67.351562 87.972656 67.21875 C 87.644531 67.082031 87.332031 66.917969 87.039062 66.71875 C 86.746094 66.523438 86.472656 66.300781 86.222656 66.050781 C 85.972656 65.800781 85.75 65.527344 85.554688 65.234375 C 85.355469 64.9375 85.191406 64.628906 85.054688 64.300781 C 84.917969 63.972656 84.816406 63.636719 84.75 63.289062 C 84.679688 62.945312 84.644531 62.59375 84.644531 62.238281 C 84.644531 61.886719 84.679688 61.535156 84.75 61.1875 C 84.816406 60.839844 84.917969 60.503906 85.054688 60.175781 C 85.191406 59.851562 85.355469 59.539062 85.554688 59.246094 C 85.75 58.953125 85.972656 58.679688 86.222656 58.429688 C 86.472656 58.179688 86.746094 57.957031 87.039062 57.757812 C 87.332031 57.5625 87.644531 57.394531 87.972656 57.261719 C 88.296875 57.125 88.636719 57.023438 88.980469 56.953125 C 89.328125 56.886719 89.679688 56.851562 90.035156 56.851562 C 90.386719 56.851562 90.738281 56.886719 91.085938 56.953125 C 91.429688 57.023438 91.769531 57.125 92.09375 57.261719 C 92.421875 57.394531 92.734375 57.5625 93.027344 57.757812 C 93.320312 57.957031 93.59375 58.179688 93.84375 58.429688 C 94.09375 58.679688 94.316406 58.953125 94.511719 59.246094 C 94.710938 59.539062 94.875 59.851562 95.011719 60.175781 C 95.148438 60.503906 95.25 60.839844 95.316406 61.1875 C 95.386719 61.535156 95.421875 61.886719 95.421875 62.238281 Z M 95.421875 62.238281 "/><path style=" stroke:none;fill-rule:nonzero;fill:#ffffff;fill-opacity:1;" d="M 88.378906 60.679688 C 88.378906 60.914062 88.296875 61.117188 88.128906 61.285156 C 87.960938 61.453125 87.757812 61.535156 87.523438 61.535156 C 87.285156 61.535156 87.082031 61.453125 86.917969 61.285156 C 86.75 61.117188 86.664062 60.914062 86.664062 60.679688 C 86.664062 60.441406 86.75 60.238281 86.917969 60.070312 C 87.082031 59.902344 87.285156 59.820312 87.523438 59.820312 C 87.757812 59.820312 87.960938 59.902344 88.128906 60.070312 C 88.296875 60.238281 88.378906 60.441406 88.378906 60.679688 Z M 88.378906 60.679688 "/><path style=" stroke:none;fill-rule:nonzero;fill:#ffffff;fill-opacity:1;" d="M 93.402344 60.679688 C 93.402344 60.914062 93.316406 61.117188 93.148438 61.285156 C 92.984375 61.453125 92.78125 61.535156 92.542969 61.535156 C 92.308594 61.535156 92.105469 61.453125 91.9375 61.285156 C 91.769531 61.117188 91.6875 60.914062 91.6875 60.679688 C 91.6875 60.441406 91.769531 60.238281 91.9375 60.070312 C 92.105469 59.902344 92.308594 59.820312 92.542969 59.820312 C 92.78125 59.820312 92.984375 59.902344 93.148438 60.070312 C 93.316406 60.238281 93.402344 60.441406 93.402344 60.679688 Z M 93.402344 60.679688 "/><path style=" stroke:none;fill-rule:nonzero;fill:#ffffff;fill-opacity:1;" d="M 91.871094 65.023438 C 91.839844 65.023438 91.808594 65.023438 91.746094 64.996094 C 91.257812 64.628906 90.644531 64.445312 90.035156 64.445312 C 89.421875 64.445312 88.808594 64.628906 88.320312 64.996094 C 88.226562 65.054688 88.136719 65.023438 88.074219 64.964844 C 88.011719 64.902344 88.042969 64.78125 88.105469 64.71875 C 88.65625 64.289062 89.328125 64.074219 90.035156 64.074219 C 90.738281 64.074219 91.410156 64.289062 91.960938 64.71875 C 92.054688 64.78125 92.054688 64.902344 91.992188 64.964844 C 91.992188 64.996094 91.929688 65.023438 91.871094 65.023438 Z M 91.871094 65.023438 "/><path style=" stroke:none;fill-rule:nonzero;fill:#5067b2;fill-opacity:1;" d="M 80.757812 62.238281 C 80.757812 62.59375 80.722656 62.945312 80.652344 63.289062 C 80.582031 63.636719 80.480469 63.972656 80.347656 64.300781 C 80.210938 64.628906 80.046875 64.9375 79.847656 65.234375 C 79.652344 65.527344 79.429688 65.800781 79.179688 66.050781 C 78.929688 66.300781 78.65625 66.523438 78.363281 66.71875 C 78.066406 66.917969 77.757812 67.082031 77.429688 67.21875 C 77.101562 67.351562 76.765625 67.457031 76.417969 67.523438 C 76.074219 67.59375 75.722656 67.628906 75.367188 67.628906 C 75.015625 67.628906 74.664062 67.59375 74.316406 67.523438 C 73.96875 67.457031 73.632812 67.351562 73.304688 67.21875 C 72.980469 67.082031 72.667969 66.917969 72.375 66.71875 C 72.082031 66.523438 71.808594 66.300781 71.558594 66.050781 C 71.308594 65.800781 71.085938 65.527344 70.886719 65.234375 C 70.691406 64.9375 70.523438 64.628906 70.390625 64.300781 C 70.253906 63.972656 70.152344 63.636719 70.082031 63.289062 C 70.015625 62.945312 69.980469 62.59375 69.980469 62.238281 C 69.980469 61.886719 70.015625 61.535156 70.082031 61.1875 C 70.152344 60.839844 70.253906 60.503906 70.390625 60.175781 C 70.523438 59.851562 70.691406 59.539062 70.886719 59.246094 C 71.085938 58.953125 71.308594 58.679688 71.558594 58.429688 C 71.808594 58.179688 72.082031 57.957031 72.375 57.757812 C 72.667969 57.5625 72.980469 57.394531 73.304688 57.261719 C 73.632812 57.125 73.96875 57.023438 74.316406 56.953125 C 74.664062 56.886719 75.015625 56.851562 75.367188 56.851562 C 75.722656 56.851562 76.074219 56.886719 76.417969 56.953125 C 76.765625 57.023438 77.101562 57.125 77.429688 57.261719 C 77.757812 57.394531 78.066406 57.5625 78.363281 57.757812 C 78.65625 57.957031 78.929688 58.179688 79.179688 58.429688 C 79.429688 58.679688 79.652344 58.953125 79.847656 59.246094 C 80.046875 59.539062 80.210938 59.851562 80.347656 60.175781 C 80.480469 60.503906 80.582031 60.839844 80.652344 61.1875 C 80.722656 61.535156 80.757812 61.886719 80.757812 62.238281 Z M 80.757812 62.238281 "/><path style=" stroke:none;fill-rule:nonzero;fill:#ffffff;fill-opacity:1;" d="M 73.714844 61.257812 C 73.714844 61.496094 73.632812 61.699219 73.464844 61.867188 C 73.296875 62.03125 73.09375 62.117188 72.859375 62.117188 C 72.621094 62.117188 72.417969 62.03125 72.25 61.867188 C 72.082031 61.699219 72 61.496094 72 61.257812 C 72 61.023438 72.082031 60.820312 72.25 60.652344 C 72.417969 60.484375 72.621094 60.402344 72.859375 60.402344 C 73.09375 60.402344 73.296875 60.484375 73.464844 60.652344 C 73.632812 60.820312 73.714844 61.023438 73.714844 61.257812 Z M 73.714844 61.257812 "/><path style=" stroke:none;fill-rule:nonzero;fill:#ffffff;fill-opacity:1;" d="M 78.734375 61.257812 C 78.734375 61.496094 78.652344 61.699219 78.484375 61.867188 C 78.316406 62.03125 78.117188 62.117188 77.878906 62.117188 C 77.640625 62.117188 77.441406 62.03125 77.273438 61.867188 C 77.105469 61.699219 77.019531 61.496094 77.019531 61.257812 C 77.019531 61.023438 77.105469 60.820312 77.273438 60.652344 C 77.441406 60.484375 77.640625 60.402344 77.878906 60.402344 C 78.117188 60.402344 78.316406 60.484375 78.484375 60.652344 C 78.652344 60.820312 78.734375 61.023438 78.734375 61.257812 Z M 78.734375 61.257812 "/><path style=" stroke:none;fill-rule:nonzero;fill:#ffffff;fill-opacity:1;" d="M 73.5625 65.023438 C 73.5 65.023438 73.4375 64.996094 73.410156 64.964844 C 73.347656 64.871094 73.378906 64.78125 73.4375 64.71875 C 73.992188 64.289062 74.664062 64.074219 75.367188 64.074219 C 76.070312 64.074219 76.746094 64.289062 77.296875 64.71875 C 77.390625 64.78125 77.390625 64.902344 77.328125 64.964844 C 77.265625 65.023438 77.144531 65.054688 77.082031 64.996094 C 76.59375 64.628906 75.980469 64.445312 75.367188 64.445312 C 74.753906 64.445312 74.144531 64.628906 73.652344 64.996094 C 73.621094 65.023438 73.59375 65.023438 73.5625 65.023438 Z M 73.5625 65.023438 "/><path style=" stroke:none;fill-rule:nonzero;fill:#ffffff;fill-opacity:1;" d="M 73.835938 60.125 C 73.804688 60.125 73.777344 60.125 73.746094 60.097656 L 72.367188 59.300781 C 72.277344 59.238281 72.246094 59.148438 72.304688 59.054688 C 72.367188 58.964844 72.460938 58.933594 72.550781 58.992188 L 73.929688 59.789062 C 74.019531 59.851562 74.050781 59.941406 73.992188 60.035156 C 73.960938 60.097656 73.898438 60.125 73.835938 60.125 Z M 73.835938 60.125 "/><path style=" stroke:none;fill-rule:nonzero;fill:#ffffff;fill-opacity:1;" d="M 76.929688 60.125 C 76.867188 60.125 76.808594 60.097656 76.777344 60.035156 C 76.714844 59.941406 76.746094 59.820312 76.835938 59.789062 L 78.214844 58.992188 C 78.308594 58.933594 78.429688 58.964844 78.460938 59.054688 C 78.523438 59.148438 78.492188 59.269531 78.398438 59.300781 L 77.019531 60.097656 C 76.992188 60.125 76.960938 60.125 76.929688 60.125 Z M 76.929688 60.125 "/><path style=" stroke:none;fill-rule:nonzero;fill:#5067b2;fill-opacity:1;" d="M 110.117188 62.238281 C 110.117188 62.59375 110.082031 62.945312 110.015625 63.289062 C 109.945312 63.636719 109.84375 63.972656 109.707031 64.300781 C 109.570312 64.628906 109.40625 64.9375 109.210938 65.234375 C 109.011719 65.527344 108.789062 65.800781 108.539062 66.050781 C 108.289062 66.300781 108.015625 66.523438 107.722656 66.71875 C 107.429688 66.917969 107.117188 67.082031 106.792969 67.21875 C 106.464844 67.351562 106.128906 67.457031 105.78125 67.523438 C 105.433594 67.59375 105.082031 67.628906 104.730469 67.628906 C 104.375 67.628906 104.023438 67.59375 103.679688 67.523438 C 103.332031 67.457031 102.992188 67.351562 102.667969 67.21875 C 102.339844 67.082031 102.03125 66.917969 101.734375 66.71875 C 101.441406 66.523438 101.167969 66.300781 100.917969 66.050781 C 100.667969 65.800781 100.445312 65.527344 100.25 65.234375 C 100.050781 64.9375 99.886719 64.628906 99.75 64.300781 C 99.617188 63.972656 99.511719 63.636719 99.445312 63.289062 C 99.375 62.945312 99.339844 62.59375 99.339844 62.238281 C 99.339844 61.886719 99.375 61.535156 99.445312 61.1875 C 99.511719 60.839844 99.617188 60.503906 99.75 60.175781 C 99.886719 59.851562 100.050781 59.539062 100.25 59.246094 C 100.445312 58.953125 100.667969 58.679688 100.917969 58.429688 C 101.167969 58.179688 101.441406 57.957031 101.734375 57.757812 C 102.03125 57.5625 102.339844 57.394531 102.667969 57.261719 C 102.992188 57.125 103.332031 57.023438 103.679688 56.953125 C 104.023438 56.886719 104.375 56.851562 104.730469 56.851562 C 105.082031 56.851562 105.433594 56.886719 105.78125 56.953125 C 106.128906 57.023438 106.464844 57.125 106.792969 57.261719 C 107.117188 57.394531 107.429688 57.5625 107.722656 57.757812 C 108.015625 57.957031 108.289062 58.179688 108.539062 58.429688 C 108.789062 58.679688 109.011719 58.953125 109.210938 59.246094 C 109.40625 59.539062 109.570312 59.851562 109.707031 60.175781 C 109.84375 60.503906 109.945312 60.839844 110.015625 61.1875 C 110.082031 61.535156 110.117188 61.886719 110.117188 62.238281 Z M 110.117188 62.238281 "/><path style=" stroke:none;fill-rule:nonzero;fill:#ffffff;fill-opacity:1;" d="M 103.074219 60.679688 C 103.074219 60.914062 102.992188 61.117188 102.824219 61.285156 C 102.65625 61.453125 102.457031 61.535156 102.21875 61.535156 C 101.980469 61.535156 101.78125 61.453125 101.613281 61.285156 C 101.445312 61.117188 101.359375 60.914062 101.359375 60.679688 C 101.359375 60.441406 101.445312 60.238281 101.613281 60.070312 C 101.78125 59.902344 101.980469 59.820312 102.21875 59.820312 C 102.457031 59.820312 102.65625 59.902344 102.824219 60.070312 C 102.992188 60.238281 103.074219 60.441406 103.074219 60.679688 Z M 103.074219 60.679688 "/><path style=" stroke:none;fill-rule:nonzero;fill:#ffffff;fill-opacity:1;" d="M 108.097656 60.679688 C 108.097656 60.914062 108.011719 61.117188 107.847656 61.285156 C 107.679688 61.453125 107.476562 61.535156 107.238281 61.535156 C 107.003906 61.535156 106.800781 61.453125 106.632812 61.285156 C 106.464844 61.117188 106.382812 60.914062 106.382812 60.679688 C 106.382812 60.441406 106.464844 60.238281 106.632812 60.070312 C 106.800781 59.902344 107.003906 59.820312 107.238281 59.820312 C 107.476562 59.820312 107.679688 59.902344 107.847656 60.070312 C 108.011719 60.238281 108.097656 60.441406 108.097656 60.679688 Z M 108.097656 60.679688 "/><path style=" stroke:none;fill-rule:nonzero;fill:#ffffff;fill-opacity:1;" d="M 105.890625 64.75 L 103.535156 64.75 C 103.441406 64.75 103.351562 64.65625 103.351562 64.566406 C 103.351562 64.472656 103.441406 64.382812 103.535156 64.382812 L 105.890625 64.382812 C 105.984375 64.382812 106.078125 64.472656 106.078125 64.566406 C 106.078125 64.65625 106.015625 64.75 105.890625 64.75 Z M 105.890625 64.75 "/><path style=" stroke:none;fill-rule:nonzero;fill:#5067b2;fill-opacity:1;" d="M 121.8125 77.058594 L 72.949219 77.058594 C 72.460938 77.058594 72.0625 76.660156 72.0625 76.167969 C 72.0625 75.679688 72.460938 75.28125 72.949219 75.28125 L 121.84375 75.28125 C 122.332031 75.28125 122.730469 75.679688 122.730469 76.167969 C 122.699219 76.660156 122.304688 77.058594 121.8125 77.058594 Z M 121.8125 77.058594 "/><path style=" stroke:none;fill-rule:nonzero;fill:#ffc043;fill-opacity:1;" d="M 104.453125 77.058594 L 72.949219 77.058594 C 72.460938 77.058594 72.0625 76.660156 72.0625 76.167969 C 72.0625 75.679688 72.460938 75.28125 72.949219 75.28125 L 104.453125 75.28125 Z M 104.453125 77.058594 "/><path style=" stroke:none;fill-rule:nonzero;fill:#ffc043;fill-opacity:1;" d="M 107.484375 76.199219 C 107.484375 76.496094 107.429688 76.78125 107.316406 77.054688 C 107.199219 77.328125 107.039062 77.570312 106.828125 77.78125 C 106.621094 77.988281 106.378906 78.152344 106.105469 78.265625 C 105.832031 78.378906 105.546875 78.433594 105.25 78.433594 C 104.953125 78.433594 104.667969 78.378906 104.394531 78.265625 C 104.121094 78.152344 103.878906 77.988281 103.667969 77.78125 C 103.460938 77.570312 103.296875 77.328125 103.183594 77.054688 C 103.070312 76.78125 103.015625 76.496094 103.015625 76.199219 C 103.015625 75.902344 103.070312 75.617188 103.183594 75.34375 C 103.296875 75.070312 103.460938 74.828125 103.667969 74.621094 C 103.878906 74.410156 104.121094 74.25 104.394531 74.136719 C 104.667969 74.023438 104.953125 73.964844 105.25 73.964844 C 105.546875 73.964844 105.832031 74.023438 106.105469 74.136719 C 106.378906 74.25 106.621094 74.410156 106.828125 74.621094 C 107.039062 74.828125 107.199219 75.070312 107.3125 75.34375 C 107.429688 75.617188 107.484375 75.902344 107.484375 76.199219 Z M 107.484375 76.199219 "/><path style=" stroke:none;fill-rule:nonzero;fill:#ffc043;fill-opacity:1;" d="M 46.191406 82.597656 L 48.578125 82.445312 L 55.957031 81.988281 L 55.710938 78.3125 L 55.5 75.066406 C 60.949219 76.167969 61.132812 74.242188 60.582031 72.066406 C 60.457031 71.578125 60.183594 70.71875 59.816406 69.679688 C 59.292969 68.179688 58.621094 66.339844 58.007812 64.6875 C 57.425781 63.1875 56.9375 61.839844 56.632812 61.105469 C 56.476562 60.707031 56.386719 60.492188 56.386719 60.492188 C 53.996094 57.402344 48.824219 57.707031 45.609375 60.492188 C 43.773438 62.085938 43.894531 66.035156 44.414062 69.527344 C 44.8125 72.160156 45.394531 74.515625 45.546875 75.496094 C 45.914062 77.761719 46.191406 82.597656 46.191406 82.597656 Z M 46.191406 82.597656 "/><path style=" stroke:none;fill-rule:nonzero;fill:#2a294b;fill-opacity:1;" d="M 58.160156 71.820312 C 58.132812 71.820312 58.101562 71.792969 58.101562 71.761719 C 58.101562 71.730469 58.132812 71.699219 58.160156 71.699219 L 60.398438 71.425781 C 60.425781 71.425781 60.457031 71.453125 60.457031 71.484375 C 60.457031 71.515625 60.425781 71.546875 60.398438 71.546875 L 58.160156 71.820312 C 58.191406 71.820312 58.160156 71.820312 58.160156 71.820312 Z M 58.160156 71.820312 "/><path style=" stroke:none;fill-rule:nonzero;fill:#2a294b;fill-opacity:1;" d="M 55.5 75.160156 C 55.46875 75.160156 55.46875 75.160156 55.5 75.160156 L 53.386719 74.515625 C 53.355469 74.515625 53.324219 74.457031 53.324219 74.425781 C 53.324219 74.394531 53.386719 74.363281 53.417969 74.363281 L 55.5 75.007812 C 55.527344 75.007812 55.558594 75.066406 55.558594 75.097656 C 55.558594 75.160156 55.527344 75.160156 55.5 75.160156 Z M 55.5 75.160156 "/><path style=" stroke:none;fill-rule:nonzero;fill:#2a294b;fill-opacity:1;" d="M 52.894531 55.136719 C 54.945312 54.523438 57.273438 53.054688 58.742188 55.503906 C 60.214844 57.953125 56.355469 61.964844 53.753906 63.25 C 51.152344 64.535156 50.507812 66.097656 51.179688 68.820312 C 51.855469 71.546875 49.710938 75.007812 45.578125 75.496094 C 44.628906 75.617188 43.066406 68.914062 41.964844 66.402344 C 40.863281 63.890625 39.914062 61.597656 41.230469 60.523438 C 42.546875 59.453125 43.710938 60.371094 44.8125 59.300781 C 45.914062 58.226562 45.882812 56.175781 47.539062 55.808594 C 49.191406 55.441406 49.28125 56.207031 52.894531 55.136719 Z M 52.894531 55.136719 "/><path style=" stroke:none;fill-rule:nonzero;fill:#ffc043;fill-opacity:1;" d="M 57.949219 64.566406 C 59.234375 67.871094 60.488281 68.882812 60.792969 69.160156 C 61.101562 69.402344 59.507812 69.863281 59.324219 69.800781 C 58.527344 69.585938 57.949219 64.566406 57.949219 64.566406 Z M 57.949219 64.566406 "/><path style=" stroke:none;fill-rule:nonzero;fill:#2a294b;fill-opacity:1;" d="M 58.101562 66.585938 C 58.101562 66.714844 58.054688 66.820312 57.964844 66.910156 C 57.875 67 57.769531 67.046875 57.640625 67.046875 C 57.515625 67.046875 57.40625 67 57.316406 66.910156 C 57.226562 66.820312 57.183594 66.714844 57.183594 66.585938 C 57.183594 66.460938 57.226562 66.351562 57.316406 66.261719 C 57.40625 66.171875 57.515625 66.128906 57.640625 66.128906 C 57.769531 66.128906 57.875 66.171875 57.964844 66.261719 C 58.054688 66.351562 58.101562 66.460938 58.101562 66.585938 Z M 58.101562 66.585938 "/><path style=" stroke:none;fill-rule:nonzero;fill:#2a294b;fill-opacity:1;" d="M 56.230469 65.300781 L 57.441406 64.039062 L 57.660156 64.25 L 56.453125 65.511719 Z M 56.230469 65.300781 "/><path style=" stroke:none;fill-rule:nonzero;fill:#ffc043;fill-opacity:1;" d="M 41.324219 85.046875 C 42.300781 86.058594 42.515625 87.621094 42.027344 88.96875 C 39.851562 94.96875 31.679688 118.175781 27.179688 116.828125 C 21.882812 115.234375 30.789062 94.90625 33.667969 90.191406 C 36.117188 86.242188 38.933594 82.570312 41.324219 85.046875 Z M 41.324219 85.046875 "/><path style=" stroke:none;fill-rule:nonzero;fill:#ffc043;fill-opacity:1;" d="M 27.300781 103.203125 C 27.300781 103.203125 23.136719 112.941406 23.964844 117.011719 C 24.789062 121.082031 35.660156 135.566406 35.660156 135.566406 L 41.382812 130.484375 C 41.382812 130.484375 33.394531 115.082031 33.515625 114.683594 C 33.636719 114.285156 37.25 105.746094 37.25 105.746094 Z M 27.300781 103.203125 "/><g clip-rule="nonzero" clip-path="url(#2946c2eaa6)"><path style=" stroke:none;fill-rule:nonzero;fill:#ffc043;fill-opacity:1;" d="M 47.660156 146.585938 L 43.773438 146.585938 C 42.851562 145.515625 41.8125 144.261719 40.710938 142.851562 C 40.464844 142.546875 40.25 142.269531 40.007812 141.933594 C 39.640625 141.414062 39.242188 140.890625 38.84375 140.371094 C 38.199219 139.515625 37.558594 138.625 36.914062 137.707031 C 36.609375 137.28125 36.269531 136.820312 35.964844 136.359375 C 35.78125 136.085938 35.597656 135.839844 35.382812 135.566406 C 34.097656 133.726562 32.8125 131.832031 31.617188 129.992188 C 31.617188 129.992188 31.617188 129.960938 31.585938 129.960938 C 31.3125 129.535156 31.035156 129.105469 30.761719 128.675781 C 27.085938 122.980469 24.359375 118.175781 24.699219 117.441406 C 25.035156 116.707031 25.28125 115.847656 25.769531 115.144531 C 26.257812 114.378906 26.996094 113.828125 28.28125 113.828125 C 29.136719 113.828125 29.933594 114.074219 30.636719 114.5 C 30.761719 114.5625 30.882812 114.65625 31.003906 114.746094 C 31.617188 115.207031 32.167969 115.789062 32.566406 116.460938 C 32.628906 116.582031 32.71875 116.707031 32.78125 116.828125 C 34.617188 119.890625 37.769531 125.402344 40.710938 131.066406 C 40.957031 131.554688 41.230469 132.042969 41.476562 132.566406 C 41.691406 132.992188 41.933594 133.421875 42.148438 133.851562 C 42.273438 134.066406 42.363281 134.308594 42.484375 134.523438 C 42.851562 135.289062 43.222656 136.023438 43.589844 136.757812 C 44.171875 137.984375 44.75 139.179688 45.242188 140.3125 C 45.425781 140.707031 45.609375 141.105469 45.761719 141.503906 C 46.621094 143.464844 47.261719 145.210938 47.660156 146.585938 Z M 47.660156 146.585938 "/></g><path style=" stroke:none;fill-rule:nonzero;fill:#2a294b;fill-opacity:1;" d="M 28.921875 115.511719 C 28.890625 115.511719 28.863281 115.480469 28.832031 115.449219 C 28.800781 115.390625 28.832031 115.328125 28.863281 115.328125 C 30.699219 114.316406 33.394531 114.59375 33.515625 114.59375 C 33.578125 114.59375 33.605469 114.65625 33.605469 114.714844 C 33.605469 114.777344 33.546875 114.808594 33.484375 114.808594 C 33.453125 114.808594 30.730469 114.53125 28.953125 115.511719 C 28.953125 115.511719 28.953125 115.511719 28.921875 115.511719 Z M 28.921875 115.511719 "/><path style=" stroke:none;fill-rule:nonzero;fill:#5067b2;fill-opacity:1;" d="M 42.792969 80.761719 L 39.945312 98.824219 L 38.71875 106.632812 L 37.585938 108.253906 L 33.699219 106.570312 L 31.28125 105.53125 L 26.535156 103.480469 C 28.28125 98.519531 30.605469 93.40625 32.964844 89.703125 C 37.832031 81.863281 42.792969 80.761719 42.792969 80.761719 Z M 42.792969 80.761719 "/><path style=" stroke:none;fill-rule:nonzero;fill:#2a294b;fill-opacity:1;" d="M 39.945312 98.796875 L 38.71875 106.601562 L 37.585938 108.226562 L 33.699219 106.539062 L 31.28125 105.5 C 32.71875 99.164062 35.6875 92.242188 35.6875 92.242188 C 35.6875 92.242188 37.558594 95.121094 39.945312 98.796875 Z M 39.945312 98.796875 "/><g clip-rule="nonzero" clip-path="url(#8facdfefd1)"><path style=" stroke:none;fill-rule:nonzero;fill:#ffc043;fill-opacity:1;" d="M 67.378906 146.585938 L 55.070312 146.585938 C 54.886719 142.851562 55.007812 139.574219 55.375 136.941406 C 55.40625 136.636719 55.46875 136.359375 55.527344 136.085938 C 55.589844 135.75 55.652344 135.441406 55.710938 135.136719 C 55.957031 134.066406 56.234375 133.175781 56.601562 132.472656 C 56.632812 132.410156 56.660156 132.351562 56.691406 132.289062 C 57.210938 131.339844 57.824219 130.757812 58.527344 130.636719 C 59.386719 130.511719 60.273438 131.003906 61.191406 132.042969 C 61.652344 132.566406 62.140625 133.238281 62.601562 134.003906 C 62.632812 134.066406 62.691406 134.15625 62.722656 134.21875 C 64.4375 137.035156 66.0625 141.382812 67.378906 146.585938 Z M 67.378906 146.585938 "/></g><g clip-rule="nonzero" clip-path="url(#fc68ffadf3)"><path style=" stroke:none;fill-rule:nonzero;fill:#ffc043;fill-opacity:1;" d="M 48.148438 146.585938 L 36.453125 146.585938 C 36.851562 145.363281 37.25 144.199219 37.679688 143.128906 C 37.769531 142.914062 37.832031 142.699219 37.925781 142.515625 C 38.230469 141.78125 38.535156 141.046875 38.84375 140.371094 C 39.394531 139.179688 39.945312 138.136719 40.496094 137.21875 C 41.167969 136.085938 41.84375 135.199219 42.515625 134.554688 C 42.855469 134.21875 43.191406 133.941406 43.527344 133.757812 C 44.046875 133.453125 44.566406 133.332031 45.058594 133.421875 C 45.210938 133.453125 45.332031 133.484375 45.488281 133.574219 C 46.25 133.941406 46.863281 134.890625 47.324219 136.332031 C 47.597656 137.21875 47.8125 138.289062 47.964844 139.515625 C 47.996094 139.882812 48.058594 140.28125 48.089844 140.679688 C 48.210938 142.394531 48.242188 144.382812 48.148438 146.585938 Z M 48.148438 146.585938 "/></g><path style=" stroke:none;fill-rule:nonzero;fill:#2a294b;fill-opacity:1;" d="M 27.574219 141.199219 C 27.574219 141.199219 37.648438 146.710938 51.089844 139.148438 C 64.5 131.585938 51.671875 130.453125 51.210938 130.453125 C 38.507812 130.941406 27.574219 141.199219 27.574219 141.199219 Z M 27.574219 141.199219 "/><g clip-rule="nonzero" clip-path="url(#ccccb7cb0a)"><path style=" stroke:none;fill-rule:nonzero;fill:#2a294b;fill-opacity:1;" d="M 68.785156 146.585938 L 34.25 146.585938 L 34.800781 143.3125 L 34.832031 143.066406 L 35.6875 137.890625 L 35.933594 136.359375 L 36.148438 135.136719 L 36.269531 134.492188 L 37.003906 134.433594 L 37.648438 134.371094 L 42.179688 133.910156 L 43.527344 133.789062 L 45.457031 133.605469 L 56.601562 132.503906 L 56.84375 132.472656 L 61.222656 132.042969 L 62.386719 131.921875 L 65.878906 131.585938 C 65.878906 131.585938 65.96875 132.042969 66.121094 132.871094 C 66.613281 135.167969 67.621094 140.371094 68.785156 146.585938 Z M 68.785156 146.585938 "/></g><path style=" stroke:none;fill-rule:nonzero;fill:#5067b2;fill-opacity:1;" d="M 66.121094 132.902344 C 65.171875 134.25 46.222656 136.359375 35.503906 137.921875 C 30.914062 138.597656 27.605469 141.199219 27.605469 141.199219 C 31.402344 130.054688 34.28125 109.296875 34.953125 95.027344 C 35.628906 80.761719 45.640625 79.78125 45.640625 79.78125 L 56.261719 80.699219 C 60.058594 83.363281 63.457031 88.019531 63.917969 98.367188 C 63.949219 98.949219 63.980469 99.558594 64.039062 100.234375 C 64.285156 103.480469 64.804688 107.460938 65.355469 111.46875 C 65.632812 113.492188 65.847656 115.632812 66.03125 117.714844 C 66.640625 125.125 66.703125 132.042969 66.121094 132.902344 Z M 66.121094 132.902344 "/><path style=" stroke:none;fill-rule:nonzero;fill:#2a294b;fill-opacity:1;" d="M 45.148438 79.84375 L 45.855469 78.28125 L 55.894531 79.140625 L 56.386719 80.761719 Z M 45.148438 79.84375 "/><path style=" stroke:none;fill-rule:nonzero;fill:#2a294b;fill-opacity:1;" d="M 66 117.714844 C 60.304688 108.5625 55.683594 93.039062 55.683594 93.039062 C 55.683594 93.039062 61.375 97.019531 64.007812 100.203125 C 64.253906 103.449219 64.773438 107.429688 65.324219 111.441406 C 65.601562 113.492188 65.816406 115.632812 66 117.714844 Z M 66 117.714844 "/><path style=" stroke:none;fill-rule:nonzero;fill:#ffc043;fill-opacity:1;" d="M 56.816406 82.84375 C 58.222656 82.570312 59.632812 83.273438 60.457031 84.40625 C 64.253906 89.519531 79.101562 109.144531 75.492188 112.144531 C 71.234375 115.664062 59.203125 97.019531 56.875 92.027344 C 54.945312 87.894531 53.445312 83.488281 56.816406 82.84375 Z M 56.816406 82.84375 "/><path style=" stroke:none;fill-rule:nonzero;fill:#ffc043;fill-opacity:1;" d="M 93.707031 78.984375 C 93.707031 78.984375 84.03125 111.746094 76.746094 114.257812 C 69.460938 116.765625 62.632812 104.089844 62.632812 104.089844 L 71.753906 97.847656 L 73.347656 100.386719 L 74.050781 101.488281 L 89.453125 76.140625 Z M 93.707031 78.984375 "/><path style=" stroke:none;fill-rule:nonzero;fill:#ffc043;fill-opacity:1;" d="M 74.050781 101.488281 C 74.050781 101.488281 72.460938 102.867188 71.96875 105.46875 C 71.96875 105.46875 71.785156 103.203125 73.347656 100.386719 Z M 74.050781 101.488281 "/><path style=" stroke:none;fill-rule:nonzero;fill:#ffc043;fill-opacity:1;" d="M 72.429688 110.644531 C 71.511719 109.113281 71.601562 107.183594 72.429688 105.59375 C 76.316406 98.183594 89.144531 75.25 92.757812 75.3125 C 96.09375 75.375 79.5625 111.5 77.359375 111.808594 C 75.675781 112.019531 73.683594 112.726562 72.429688 110.644531 Z M 72.429688 110.644531 "/><path style=" stroke:none;fill-rule:nonzero;fill:#5067b2;fill-opacity:1;" d="M 72.121094 98 L 62.234375 104.671875 C 61.925781 104.214844 61.191406 103.050781 60.886719 102.53125 C 55.101562 92.886719 46.925781 83.578125 56.203125 80.699219 C 56.203125 80.699219 62.355469 81.742188 66.0625 88.261719 C 68.171875 91.875 70.867188 95.855469 72.121094 98 Z M 72.121094 98 "/><path style=" stroke:none;fill-rule:nonzero;fill:#ffc043;fill-opacity:1;" d="M 89.453125 76.140625 L 93.09375 79.355469 C 93.09375 79.355469 95.851562 77.914062 97.257812 75.832031 C 97.65625 75.25 97.933594 74.640625 98.054688 73.996094 C 98.515625 70.933594 96.460938 70.660156 95.636719 69.433594 C 95.023438 68.484375 98.699219 66.097656 97.992188 65.578125 C 97.289062 65.054688 94.011719 67.472656 92.054688 69.34375 C 90.09375 71.242188 89.820312 74.085938 89.910156 74.761719 C 89.972656 75.464844 89.453125 76.140625 89.453125 76.140625 Z M 89.453125 76.140625 "/><path style=" stroke:none;fill-rule:nonzero;fill:#2a294b;fill-opacity:1;" d="M 72 105.5625 C 71.96875 105.5625 71.96875 105.5625 72 105.5625 C 71.9375 105.5625 71.910156 105.5 71.910156 105.4375 C 72.398438 102.835938 73.992188 101.429688 74.019531 101.398438 C 74.050781 101.367188 74.113281 101.367188 74.175781 101.398438 C 74.203125 101.429688 74.203125 101.488281 74.175781 101.550781 C 74.144531 101.550781 72.613281 102.929688 72.121094 105.46875 C 72.0625 105.53125 72.03125 105.5625 72 105.5625 Z M 72 105.5625 "/><g clip-rule="nonzero" clip-path="url(#dc4fd3269c)"><path style=" stroke:none;fill-rule:nonzero;fill:#2a294b;fill-opacity:1;" d="M 21.175781 146.554688 L 132.3125 146.554688 L 132.3125 147.230469 L 21.175781 147.230469 Z M 21.175781 146.554688 "/></g><path style=" stroke:none;fill-rule:nonzero;fill:#ffc043;fill-opacity:1;" d="M 110.027344 31.867188 C 110.027344 32.292969 109.984375 32.714844 109.902344 33.132812 C 109.816406 33.550781 109.695312 33.957031 109.53125 34.351562 C 109.367188 34.746094 109.167969 35.121094 108.933594 35.472656 C 108.695312 35.828125 108.425781 36.15625 108.125 36.457031 C 107.824219 36.757812 107.496094 37.027344 107.140625 37.265625 C 106.785156 37.5 106.414062 37.703125 106.019531 37.863281 C 105.625 38.027344 105.21875 38.152344 104.800781 38.234375 C 104.382812 38.316406 103.960938 38.359375 103.535156 38.359375 C 103.109375 38.359375 102.6875 38.316406 102.269531 38.234375 C 101.851562 38.152344 101.445312 38.027344 101.050781 37.863281 C 100.65625 37.703125 100.285156 37.5 99.929688 37.265625 C 99.574219 37.027344 99.246094 36.757812 98.945312 36.457031 C 98.644531 36.15625 98.375 35.828125 98.136719 35.472656 C 97.902344 35.121094 97.703125 34.746094 97.539062 34.351562 C 97.375 33.957031 97.253906 33.550781 97.167969 33.132812 C 97.085938 32.714844 97.042969 32.292969 97.042969 31.867188 C 97.042969 31.441406 97.085938 31.019531 97.167969 30.601562 C 97.253906 30.183594 97.375 29.777344 97.539062 29.382812 C 97.703125 28.988281 97.902344 28.617188 98.136719 28.261719 C 98.375 27.90625 98.644531 27.578125 98.945312 27.277344 C 99.246094 26.976562 99.574219 26.707031 99.929688 26.472656 C 100.285156 26.234375 100.65625 26.035156 101.050781 25.871094 C 101.445312 25.707031 101.851562 25.585938 102.269531 25.5 C 102.6875 25.417969 103.109375 25.378906 103.535156 25.378906 C 103.960938 25.378906 104.382812 25.417969 104.800781 25.5 C 105.21875 25.585938 105.625 25.707031 106.019531 25.871094 C 106.414062 26.035156 106.785156 26.234375 107.140625 26.472656 C 107.496094 26.707031 107.824219 26.976562 108.125 27.277344 C 108.425781 27.578125 108.695312 27.90625 108.933594 28.261719 C 109.167969 28.617188 109.367188 28.988281 109.53125 29.382812 C 109.695312 29.777344 109.816406 30.183594 109.902344 30.601562 C 109.984375 31.019531 110.027344 31.441406 110.027344 31.867188 Z M 110.027344 31.867188 "/><path style=" stroke:none;fill-rule:nonzero;fill:#ffffff;fill-opacity:1;" d="M 103.414062 34.5 L 100.902344 32.265625 C 100.199219 31.621094 100.136719 30.550781 100.75 29.847656 C 101.390625 29.144531 102.464844 29.082031 103.167969 29.695312 L 103.472656 29.96875 L 103.839844 29.664062 C 104.574219 29.050781 105.648438 29.171875 106.261719 29.910156 C 106.871094 30.644531 106.75 31.714844 106.015625 32.328125 Z M 103.414062 34.5 "/><path style=" stroke:none;fill-rule:nonzero;fill:#ffc043;fill-opacity:1;" d="M 136.632812 100.90625 C 136.632812 101.378906 136.585938 101.84375 136.492188 102.304688 C 136.402344 102.765625 136.265625 103.214844 136.085938 103.648438 C 135.90625 104.082031 135.683594 104.496094 135.425781 104.886719 C 135.164062 105.277344 134.867188 105.640625 134.53125 105.972656 C 134.199219 106.304688 133.839844 106.601562 133.449219 106.863281 C 133.054688 107.125 132.644531 107.347656 132.207031 107.527344 C 131.773438 107.707031 131.324219 107.84375 130.863281 107.933594 C 130.402344 108.027344 129.9375 108.070312 129.46875 108.070312 C 128.996094 108.070312 128.53125 108.027344 128.070312 107.933594 C 127.609375 107.84375 127.160156 107.707031 126.726562 107.527344 C 126.289062 107.347656 125.878906 107.125 125.488281 106.863281 C 125.097656 106.601562 124.734375 106.304688 124.402344 105.972656 C 124.070312 105.640625 123.773438 105.277344 123.511719 104.886719 C 123.25 104.496094 123.027344 104.082031 122.847656 103.648438 C 122.667969 103.214844 122.53125 102.765625 122.441406 102.304688 C 122.347656 101.84375 122.304688 101.378906 122.304688 100.90625 C 122.304688 100.4375 122.347656 99.972656 122.441406 99.511719 C 122.53125 99.046875 122.667969 98.601562 122.847656 98.164062 C 123.027344 97.730469 123.25 97.320312 123.511719 96.925781 C 123.773438 96.535156 124.070312 96.175781 124.402344 95.839844 C 124.734375 95.507812 125.097656 95.210938 125.488281 94.949219 C 125.878906 94.6875 126.289062 94.46875 126.726562 94.289062 C 127.160156 94.109375 127.609375 93.972656 128.070312 93.882812 C 128.53125 93.789062 128.996094 93.742188 129.46875 93.742188 C 129.9375 93.742188 130.402344 93.789062 130.863281 93.882812 C 131.324219 93.972656 131.773438 94.109375 132.207031 94.289062 C 132.644531 94.46875 133.054688 94.6875 133.449219 94.949219 C 133.839844 95.210938 134.199219 95.507812 134.53125 95.839844 C 134.867188 96.175781 135.164062 96.535156 135.425781 96.925781 C 135.683594 97.320312 135.90625 97.730469 136.085938 98.164062 C 136.265625 98.601562 136.402344 99.046875 136.492188 99.511719 C 136.585938 99.972656 136.632812 100.4375 136.632812 100.90625 Z M 136.632812 100.90625 "/><path style=" stroke:none;fill-rule:nonzero;fill:#ffffff;fill-opacity:1;" d="M 127.8125 99.4375 C 127.8125 99.4375 129.3125 99.40625 129.222656 97.140625 C 129.222656 97.140625 130.203125 97.019531 130.261719 97.847656 C 130.324219 98.671875 130.203125 99.375 130.203125 99.375 L 132.558594 99.375 C 133.050781 99.375 133.476562 99.773438 133.507812 100.265625 C 133.570312 101.519531 133.539062 103.695312 132.527344 103.9375 C 131.121094 104.304688 129.957031 104.121094 129.679688 104.03125 C 129.40625 103.90625 128.304688 103.753906 127.785156 103.753906 "/><path style=" stroke:none;fill-rule:nonzero;fill:#2a294b;fill-opacity:1;" d="M 127.660156 103.878906 L 126.375 103.878906 C 126.253906 103.878906 126.160156 103.785156 126.160156 103.664062 L 126.160156 99.5 C 126.160156 99.375 126.253906 99.285156 126.375 99.285156 L 127.660156 99.285156 C 127.785156 99.285156 127.875 99.375 127.875 99.5 L 127.875 103.664062 C 127.875 103.785156 127.785156 103.878906 127.660156 103.878906 Z M 127.660156 103.878906 "/><g clip-rule="nonzero" clip-path="url(#f533c0e3ae)"><path style=" stroke:none;fill-rule:nonzero;fill:#2a294b;fill-opacity:1;" d="M 46.34375 49.960938 L 16.984375 49.960938 C 16.308594 49.960938 15.757812 49.410156 15.757812 48.738281 L 15.757812 40.226562 C 15.757812 39.550781 16.308594 39 16.984375 39 L 46.34375 39 C 47.015625 39 47.570312 39.550781 47.570312 40.226562 L 47.570312 48.738281 C 47.539062 49.410156 47.015625 49.960938 46.34375 49.960938 Z M 46.34375 49.960938 "/></g><path style=" stroke:none;fill-rule:nonzero;fill:#ffc043;fill-opacity:1;" d="M 23.199219 41.480469 L 24.175781 43.472656 L 26.351562 43.777344 L 24.789062 45.308594 L 25.15625 47.511719 L 23.199219 46.472656 L 21.238281 47.511719 L 21.605469 45.308594 L 20.042969 43.777344 L 22.21875 43.472656 Z M 23.199219 41.480469 "/><path style=" stroke:none;fill-rule:nonzero;fill:#ffc043;fill-opacity:1;" d="M 31.648438 41.480469 L 32.628906 43.472656 L 34.800781 43.777344 L 33.238281 45.308594 L 33.605469 47.511719 L 31.648438 46.472656 L 29.6875 47.511719 L 30.054688 45.308594 L 28.496094 43.777344 L 30.667969 43.472656 Z M 31.648438 41.480469 "/><path style=" stroke:none;fill-rule:nonzero;fill:#e5d7ff;fill-opacity:1;" d="M 40.097656 41.480469 L 41.078125 43.472656 L 43.28125 43.777344 L 41.691406 45.308594 L 42.058594 47.511719 L 40.097656 46.472656 L 38.136719 47.511719 L 38.535156 45.308594 L 36.945312 43.777344 L 39.117188 43.472656 Z M 40.097656 41.480469 "/><g clip-rule="nonzero" clip-path="url(#3e60446bc9)"><g clip-rule="nonzero" clip-path="url(#2de58668c7)"><g transform="matrix(1,0,0,1,61,23)"><g clip-path="url(#be3ce4d928)"><g clip-rule="nonzero" clip-path="url(#0b2a377970)"><g clip-rule="nonzero" clip-path="url(#a905ad8879)"><path style=" stroke:none;fill-rule:nonzero;fill:#ef6f9d;fill-opacity:1;" d="M 0.0703125 0.984375 L 9.519531 0.984375 L 9.519531 10.433594 L 0.0703125 10.433594 Z M 0.0703125 0.984375 "/></g></g></g></g></g></g><g clip-rule="nonzero" clip-path="url(#aff63f437d)"><g clip-rule="nonzero" clip-path="url(#2be9551b49)"><g transform="matrix(1,0,0,1,18,89)"><g clip-path="url(#1496789e72)"><g clip-rule="nonzero" clip-path="url(#9cc64c6e73)"><g clip-rule="nonzero" clip-path="url(#f3ca6aaba4)"><path style=" stroke:none;fill-rule:nonzero;fill:#ef6f9d;fill-opacity:1;" d="M 0.132812 0.722656 L 7.597656 0.722656 L 7.597656 8.1875 L 0.132812 8.1875 Z M 0.132812 0.722656 "/></g></g></g></g></g></g><g clip-rule="nonzero" clip-path="url(#e94f600b3f)"><path style=" stroke:none;fill-rule:nonzero;fill:#ffffff;fill-opacity:1;" d="M 64.542969 29.976562 C 64.542969 29.976562 65.109375 30.527344 65.84375 30.527344 C 66.242188 30.527344 66.601562 30.320312 66.601562 29.894531 C 66.601562 29.011719 64.117188 29.101562 64.117188 27.519531 C 64.117188 26.761719 64.683594 26.171875 65.5 26.039062 L 65.5 25.347656 L 66.132812 25.347656 L 66.132812 26.027344 C 66.984375 26.097656 67.425781 26.5625 67.425781 26.5625 L 67.015625 27.335938 C 67.015625 27.335938 66.515625 26.882812 65.863281 26.882812 C 65.421875 26.882812 65.074219 27.140625 65.074219 27.507812 C 65.074219 28.382812 67.554688 28.226562 67.554688 29.875 C 67.554688 30.625 67.03125 31.265625 66.132812 31.382812 L 66.132812 32.0625 L 65.5 32.0625 L 65.5 31.378906 C 64.550781 31.269531 64.027344 30.6875 64.027344 30.6875 Z M 64.542969 29.976562 "/></g><g clip-rule="nonzero" clip-path="url(#c918632ffa)"><g clip-rule="nonzero" clip-path="url(#3d072db7c1)"><g clip-rule="nonzero" clip-path="url(#6d1a524c5e)"><path style=" stroke:none;fill-rule:nonzero;fill:#ffffff;fill-opacity:1;" d="M 20.09375 93.207031 C 19.945312 93.066406 19.867188 92.878906 19.859375 92.648438 C 19.855469 92.582031 19.855469 92.496094 19.859375 92.386719 C 19.863281 92.273438 19.867188 92.179688 19.871094 92.109375 C 19.894531 91.871094 19.980469 91.6875 20.132812 91.550781 C 20.28125 91.417969 20.488281 91.351562 20.757812 91.359375 C 21.023438 91.367188 21.226562 91.441406 21.371094 91.585938 C 21.515625 91.730469 21.59375 91.917969 21.601562 92.160156 C 21.605469 92.296875 21.605469 92.390625 21.605469 92.4375 C 21.605469 92.480469 21.597656 92.566406 21.585938 92.695312 C 21.566406 92.929688 21.476562 93.109375 21.320312 93.238281 C 21.164062 93.371094 20.957031 93.433594 20.699219 93.425781 C 20.445312 93.417969 20.242188 93.34375 20.09375 93.207031 Z M 20.082031 95.390625 C 20.058594 95.367188 20.046875 95.335938 20.050781 95.304688 C 20.050781 95.28125 20.058594 95.257812 20.074219 95.242188 L 23.03125 91.5625 C 23.0625 91.523438 23.09375 91.496094 23.117188 91.480469 C 23.148438 91.464844 23.183594 91.457031 23.234375 91.457031 L 23.542969 91.464844 C 23.582031 91.46875 23.609375 91.480469 23.628906 91.5 C 23.652344 91.523438 23.664062 91.554688 23.660156 91.585938 C 23.660156 91.609375 23.652344 91.628906 23.636719 91.648438 L 20.679688 95.328125 C 20.65625 95.359375 20.625 95.386719 20.589844 95.410156 C 20.5625 95.425781 20.527344 95.433594 20.480469 95.433594 L 20.175781 95.421875 C 20.136719 95.421875 20.105469 95.410156 20.082031 95.390625 Z M 20.957031 92.898438 C 21.011719 92.835938 21.046875 92.753906 21.0625 92.652344 C 21.074219 92.523438 21.078125 92.441406 21.078125 92.410156 C 21.082031 92.367188 21.078125 92.289062 21.074219 92.171875 C 21.070312 92.074219 21.039062 91.988281 20.988281 91.917969 C 20.9375 91.851562 20.855469 91.8125 20.742188 91.8125 C 20.636719 91.808594 20.554688 91.839844 20.496094 91.90625 C 20.441406 91.972656 20.410156 92.054688 20.398438 92.15625 C 20.394531 92.210938 20.386719 92.292969 20.386719 92.390625 C 20.382812 92.488281 20.382812 92.570312 20.382812 92.632812 C 20.390625 92.730469 20.417969 92.8125 20.46875 92.882812 C 20.519531 92.953125 20.597656 92.988281 20.710938 92.992188 C 20.820312 92.992188 20.90625 92.964844 20.957031 92.898438 Z M 22.351562 95.308594 C 22.203125 95.164062 22.121094 94.972656 22.113281 94.738281 C 22.113281 94.671875 22.113281 94.585938 22.117188 94.476562 C 22.117188 94.363281 22.125 94.273438 22.128906 94.203125 C 22.152344 93.964844 22.238281 93.78125 22.386719 93.644531 C 22.539062 93.511719 22.746094 93.445312 23.011719 93.453125 C 23.28125 93.460938 23.488281 93.535156 23.628906 93.679688 C 23.773438 93.824219 23.847656 94.015625 23.859375 94.253906 C 23.863281 94.390625 23.863281 94.484375 23.863281 94.523438 C 23.859375 94.566406 23.855469 94.65625 23.84375 94.785156 C 23.820312 95.019531 23.730469 95.207031 23.574219 95.34375 C 23.417969 95.480469 23.210938 95.542969 22.953125 95.535156 C 22.699219 95.527344 22.5 95.453125 22.351562 95.308594 Z M 23.222656 94.992188 C 23.273438 94.925781 23.308594 94.84375 23.316406 94.746094 C 23.328125 94.617188 23.335938 94.535156 23.335938 94.5 C 23.335938 94.460938 23.335938 94.382812 23.332031 94.265625 C 23.324219 94.167969 23.296875 94.082031 23.246094 94.011719 C 23.191406 93.945312 23.113281 93.910156 23 93.90625 C 22.890625 93.902344 22.808594 93.933594 22.753906 94 C 22.699219 94.066406 22.664062 94.148438 22.65625 94.25 C 22.648438 94.304688 22.644531 94.382812 22.640625 94.480469 C 22.640625 94.578125 22.640625 94.664062 22.640625 94.730469 C 22.644531 94.824219 22.671875 94.90625 22.722656 94.976562 C 22.773438 95.046875 22.855469 95.082031 22.964844 95.085938 C 23.082031 95.089844 23.167969 95.054688 23.222656 94.992188 Z M 23.222656 94.992188 "/></g></g></g><path style=" stroke:none;fill-rule:nonzero;fill:#ef6f9d;fill-opacity:1;" d="M 135.816406 22.3125 C 133.632812 22.3125 131.074219 21.785156 127.875 20.398438 C 122.636719 18.128906 120.363281 13.1875 119.382812 9.4375 C 117.425781 1.96875 118.867188 -7.503906 122.738281 -12.605469 C 128.363281 -20.015625 134.351562 -18.988281 141.925781 -17.683594 C 145.410156 -17.082031 149.363281 -16.402344 153.707031 -16.535156 C 159.03125 -16.695312 163.761719 -15.476562 167.773438 -12.910156 C 171.257812 -10.679688 174.074219 -7.472656 175.921875 -3.632812 C 179.1875 3.167969 178.882812 10.953125 175.183594 15.296875 C 172.292969 18.691406 167.644531 19.652344 162.085938 18.003906 C 152.960938 15.300781 148.542969 17.550781 144.273438 19.726562 C 141.695312 21.042969 139.203125 22.3125 135.816406 22.3125 Z M 122.832031 -12.53125 L 122.929688 -12.457031 C 119.101562 -7.410156 117.675781 1.976562 119.613281 9.378906 C 120.582031 13.074219 122.820312 17.949219 127.972656 20.179688 C 136.019531 23.664062 139.976562 21.652344 144.164062 19.515625 C 148.476562 17.320312 152.941406 15.046875 162.15625 17.777344 C 167.617188 19.394531 172.179688 18.457031 175.003906 15.144531 C 178.640625 10.867188 178.933594 3.191406 175.703125 -3.527344 C 173.792969 -7.507812 167.824219 -16.734375 153.714844 -16.296875 C 149.34375 -16.164062 145.382812 -16.84375 141.886719 -17.449219 C 134.390625 -18.738281 128.46875 -19.757812 122.933594 -12.460938 Z M 122.832031 -12.53125 "/><g clip-rule="nonzero" clip-path="url(#8b43c0008a)"><path style=" stroke:none;fill-rule:nonzero;fill:#2a294b;fill-opacity:1;" d="M 14.546875 23.535156 C 14.363281 23.429688 13.921875 22.96875 13.894531 22.851562 C 13.835938 22.582031 14.042969 22.359375 14.316406 22.398438 C 14.722656 22.457031 14.84375 22.503906 14.996094 22.667969 C 15.195312 22.882812 15.269531 23.121094 15.195312 23.300781 C 15.097656 23.539062 14.769531 23.65625 14.546875 23.535156 Z M 19.957031 21.984375 C 19.800781 21.878906 19.757812 21.808594 19.683594 21.558594 C 19.648438 21.433594 19.59375 21.257812 19.566406 21.167969 C 19.417969 20.71875 19.859375 20.398438 20.25 20.667969 C 20.492188 20.828125 20.566406 21.050781 20.585938 21.679688 C 20.597656 21.96875 20.207031 22.15625 19.957031 21.984375 Z M 9.644531 20.554688 C 9.457031 20.398438 9.390625 20.214844 9.410156 19.910156 C 9.425781 19.679688 9.441406 19.628906 9.539062 19.546875 C 9.6875 19.421875 9.933594 19.414062 10.140625 19.53125 C 10.347656 19.652344 10.445312 19.796875 10.46875 20.023438 C 10.484375 20.199219 10.472656 20.234375 10.316406 20.433594 C 10.152344 20.636719 10.136719 20.648438 9.949219 20.648438 C 9.808594 20.648438 9.722656 20.621094 9.644531 20.554688 Z M 25.742188 19.527344 C 25.480469 19.386719 25.253906 18.878906 25.316406 18.550781 C 25.355469 18.339844 25.539062 18.164062 25.726562 18.164062 C 25.980469 18.164062 26.070312 18.230469 26.289062 18.5625 C 26.484375 18.859375 26.496094 18.902344 26.496094 19.140625 C 26.496094 19.378906 26.488281 19.40625 26.371094 19.503906 C 26.214844 19.636719 25.96875 19.648438 25.742188 19.527344 Z M 14.425781 19.359375 C 14.296875 19.324219 13.917969 18.96875 13.863281 18.835938 C 13.847656 18.796875 13.835938 18.636719 13.832031 18.484375 C 13.832031 18.222656 13.839844 18.195312 13.96875 18.054688 C 14.203125 17.800781 14.488281 17.859375 14.734375 18.214844 C 15.09375 18.738281 15.089844 19.191406 14.71875 19.347656 C 14.640625 19.378906 14.574219 19.40625 14.566406 19.402344 C 14.5625 19.398438 14.496094 19.382812 14.425781 19.359375 Z M 18.386719 18.710938 C 18.191406 18.613281 18.097656 18.46875 18.066406 18.21875 C 18.042969 18.011719 18.046875 17.996094 18.1875 17.855469 C 18.445312 17.597656 18.777344 17.675781 18.964844 18.042969 C 19.058594 18.226562 19.0625 18.253906 19.003906 18.464844 C 18.972656 18.570312 18.914062 18.648438 18.828125 18.703125 C 18.664062 18.804688 18.570312 18.804688 18.386719 18.710938 Z M 21.988281 16.933594 C 21.628906 16.757812 21.429688 16.394531 21.546875 16.121094 C 21.628906 15.917969 21.769531 15.804688 21.933594 15.804688 C 22.117188 15.804688 22.285156 15.90625 22.378906 16.070312 C 22.417969 16.140625 22.496094 16.246094 22.546875 16.300781 C 22.683594 16.453125 22.703125 16.570312 22.625 16.730469 C 22.558594 16.875 22.355469 17.007812 22.207031 17.003906 C 22.164062 17.003906 22.066406 16.972656 21.988281 16.933594 Z M 28.804688 16.527344 C 28.648438 16.441406 28.53125 16.1875 28.484375 15.835938 C 28.417969 15.335938 28.429688 15.242188 28.558594 15.097656 C 28.652344 14.992188 28.714844 14.960938 28.890625 14.945312 C 29.089844 14.925781 29.113281 14.933594 29.25 15.070312 C 29.371094 15.195312 29.394531 15.246094 29.394531 15.402344 C 29.394531 15.503906 29.40625 15.753906 29.421875 15.960938 L 29.449219 16.335938 L 29.320312 16.464844 C 29.175781 16.609375 28.996094 16.628906 28.804688 16.527344 Z M 10.371094 16.140625 C 10.171875 16.019531 10.050781 15.820312 10.03125 15.582031 C 10.015625 15.394531 10.027344 15.355469 10.125 15.257812 C 10.371094 15.011719 10.65625 15.078125 10.925781 15.445312 C 11.128906 15.71875 11.160156 15.820312 11.097656 15.976562 C 11 16.210938 10.625 16.296875 10.371094 16.140625 Z M 25.527344 15.273438 C 25.265625 15.183594 25.089844 14.972656 25.058594 14.714844 C 25.03125 14.472656 25.066406 14.351562 25.195312 14.195312 C 25.351562 14.011719 25.574219 13.953125 25.769531 14.046875 C 25.933594 14.125 26.125 14.367188 26.125 14.492188 C 26.125 14.535156 26.164062 14.617188 26.207031 14.675781 C 26.296875 14.789062 26.316406 15.015625 26.25 15.144531 C 26.191406 15.25 25.992188 15.351562 25.847656 15.347656 C 25.785156 15.34375 25.640625 15.3125 25.527344 15.273438 Z M 7.289062 14.261719 C 6.984375 14.058594 6.808594 13.585938 6.917969 13.265625 C 7.019531 12.953125 7.371094 12.847656 7.613281 13.050781 C 7.851562 13.253906 7.941406 13.441406 7.972656 13.800781 C 8 14.125 7.996094 14.136719 7.886719 14.246094 C 7.742188 14.390625 7.488281 14.398438 7.289062 14.261719 Z M 14.351562 14.191406 C 14.0625 14 13.941406 13.550781 14.132812 13.375 C 14.261719 13.253906 14.390625 13.226562 14.550781 13.277344 C 14.816406 13.367188 15.0625 13.746094 15.011719 13.988281 C 14.953125 14.25 14.601562 14.359375 14.351562 14.191406 Z M 18.601562 14.179688 C 18.550781 14.148438 18.414062 14.015625 18.292969 13.882812 L 18.074219 13.636719 L 18.074219 13.3125 C 18.074219 13.015625 18.082031 12.984375 18.1875 12.878906 C 18.285156 12.78125 18.339844 12.761719 18.511719 12.761719 C 18.703125 12.761719 18.734375 12.777344 18.878906 12.933594 C 19.039062 13.101562 19.128906 13.320312 19.128906 13.535156 C 19.128906 13.597656 19.148438 13.660156 19.171875 13.671875 C 19.195312 13.6875 19.210938 13.773438 19.210938 13.863281 C 19.210938 14.085938 19.070312 14.234375 18.851562 14.230469 C 18.765625 14.230469 18.652344 14.207031 18.601562 14.179688 Z M 26.257812 11.367188 C 26.066406 11.304688 25.894531 11.089844 25.816406 10.824219 C 25.714844 10.472656 25.730469 10.316406 25.878906 10.167969 C 25.988281 10.054688 26.027344 10.042969 26.179688 10.0625 C 26.546875 10.101562 26.785156 10.304688 26.789062 10.574219 C 26.789062 10.640625 26.816406 10.730469 26.851562 10.773438 C 26.949219 10.902344 26.925781 11.109375 26.796875 11.253906 C 26.667969 11.394531 26.472656 11.4375 26.257812 11.367188 Z M 22.21875 11.164062 C 21.851562 10.878906 21.835938 10.171875 22.191406 9.988281 C 22.46875 9.847656 22.746094 9.96875 22.914062 10.308594 C 23.09375 10.671875 23.039062 10.933594 22.742188 11.140625 C 22.550781 11.273438 22.367188 11.28125 22.21875 11.164062 Z M 10.457031 10.761719 C 10.257812 10.636719 9.996094 10.363281 9.964844 10.242188 C 9.921875 10.0625 10.03125 9.871094 10.25 9.746094 C 10.511719 9.601562 10.640625 9.605469 10.84375 9.773438 C 10.9375 9.84375 11.058594 9.941406 11.117188 9.980469 C 11.203125 10.042969 11.222656 10.089844 11.222656 10.238281 C 11.222656 10.398438 11.199219 10.441406 11.023438 10.628906 C 10.796875 10.863281 10.671875 10.890625 10.457031 10.761719 Z M 16.203125 9.152344 C 15.964844 9 15.871094 8.785156 15.941406 8.554688 C 16.011719 8.3125 16.1875 8.148438 16.371094 8.148438 C 16.484375 8.148438 16.570312 8.191406 16.785156 8.375 C 17.0625 8.613281 17.128906 8.734375 17.066406 8.898438 C 17.015625 9.027344 16.910156 9.113281 16.695312 9.195312 C 16.460938 9.289062 16.402344 9.285156 16.203125 9.152344 Z M 21.363281 7.871094 C 21.269531 7.835938 20.992188 7.558594 20.925781 7.433594 C 20.761719 7.121094 20.925781 6.847656 21.300781 6.800781 C 21.632812 6.757812 21.636719 6.757812 22.140625 7.242188 C 22.265625 7.363281 22.265625 7.582031 22.136719 7.710938 C 22.003906 7.84375 21.550781 7.9375 21.363281 7.871094 Z M 21.363281 7.871094 "/></g></g></svg>